<svg xmlns="http://www.w3.org/2000/svg" width="170.349" height="12.001" viewBox="0 0 170.349 12.001"><path d="M0 2.4h3.993V12H6.39V2.4h3.992V0L0 .008V2.4zm23.958 2.4h-5.59V0h-2.396v12h2.396V7.2h5.59V12h2.396V0h-2.396v4.8zM33.54 12h8.785V9.6h-6.39V7.2h4.793V4.8h-4.792V2.4h6.39V0H33.54v12zm29.884-3.213l-3.35-8.78H57.56l4.724 11.985h2.358L69.35.007h-2.515l-3.41 8.78zM77.25.007l-4.715 11.985h2.516l.71-1.838.942-2.396 1.792-4.556 1.745 4.556.864 2.396.707 1.838 2.508-.008L79.608.007h-2.357zm21.958 3.45c0-2.3-1.375-3.45-4.126-3.45L89.442 0v12h2.396V7.2h2.395l3.042 4.792h2.703l-2.94-5.226c1.447-.474 2.17-1.577 2.17-3.308zM95.6 4.8H91.84V2.4h3.992c.933.033 1.206.47 1.23 1.257-.023.863-.51 1.128-1.46 1.143zm10.612 7.2h2.395V0h-2.395v12zM118.75.007l-4.717 11.985h2.516l.72-1.607 5.295-.007.744 1.614 2.506-.008L121.108.006h-2.358zM118.13 8l1.91-4.798 1.826 4.804L118.13 8zm21.344-2.33c.53-.356.812-1.066.85-2.132-.11-2.232-1.158-3.408-3.145-3.524h-6.22l.006 11.98 6.59.008c2.27-.135 3.456-1.33 3.56-3.59-.062-1.123-.61-2.037-1.642-2.74zm-6.116-3.275h3.256c.933.033 1.25.668 1.25 1.254 0 .98-.536 1.167-1.273 1.167h-3.238l.006-2.422zm4 7.204h-3.993l-.014-2.41 3.967.02c1.09.03 1.33.64 1.33 1.18 0 .525-.338 1.21-1.29 1.21zM149.334 0h-2.396v12l8.724-.008.06-2.394h-6.39V0zM170.1 2.4V.007L161.314 0v12l8.77-.008.015-2.394h-6.39V7.2h4.793l.018-2.4h-4.81V2.4h6.39z"/></svg>