<svg xmlns="http://www.w3.org/2000/svg" width="212.5" height="12.001" viewBox="0 0 212.5 12.001">
  <g>
    <path id="test-1" d="M2.52.006l3.357 8.782L9.297.006h2.52L7.1 11.992H4.734L0 .006h2.52zM18.24 10.154l-.708 1.838H15.01L19.738.006H22.1l4.72 11.98-2.513.007-.71-1.838-.866-2.396-1.748-4.557-1.796 4.556-.945 2.394z"/>
  </g>
  <path id="test-2" d="M42 2.4h4.002V12h2.4V2.4h4.003V0L42 .006V2.4zm24.014 2.4H60.41V0h-2.4v12h2.4V7.2h5.604V12h2.4V0h-2.4v4.8zM75.62 12h8.805V9.6H78.02V7.2h4.804V4.8H78.02V2.4h6.405V0H75.62v12zm29.953-3.212L102.217.006h-2.52l4.734 11.986h2.365l4.72-11.986h-2.522l-3.42 8.782zm13.86-8.782l-4.727 11.986h2.52l.71-1.838.945-2.396 1.797-4.556 1.75 4.556.866 2.396.71 1.838 2.512-.008-4.72-11.98h-2.36zm22.008 3.452c0-2.3-1.378-3.452-4.135-3.452L131.652 0v12h2.402V7.2h2.4l3.05 4.792h2.71l-2.947-5.226c1.45-.474 2.174-1.577 2.174-3.308zM137.827 4.8h-3.77V2.4h4c.936.033 1.21.468 1.235 1.257-.024.863-.514 1.128-1.464 1.143zm10.637 7.2h2.4V0h-2.4v12zM161.03.006l-4.73 11.986h2.522l.722-1.606 5.308-.007.746 1.612 2.513-.008-4.718-11.98h-2.363zM160.41 8l1.914-4.798 1.83 4.804L160.41 8zm21.393-2.33c.53-.356.814-1.067.852-2.133-.11-2.232-1.16-3.408-3.15-3.525h-6.235l.007 11.98 6.605.008c2.274-.134 3.464-1.33 3.568-3.59-.063-1.12-.612-2.035-1.647-2.74zm-6.13-3.275h3.263c.935.032 1.254.668 1.254 1.254 0 .98-.538 1.166-1.277 1.166h-3.247l.006-2.42zM179.68 9.6h-4l-.015-2.41 3.976.02c1.094.03 1.333.64 1.333 1.18 0 .525-.338 1.21-1.292 1.21zM191.69 0h-2.4v12l8.744-.008.06-2.393h-6.403V0zM212.5 2.4V.006L203.695 0v12l8.79-.008.015-2.392h-6.403V7.2h4.803l.018-2.4h-4.82V2.4h6.402z"/>
</svg>