<?xml version="1.0" standalone="no"?>
<!DOCTYPE svg PUBLIC "-//W3C//DTD SVG 1.1//EN" "http://www.w3.org/Graphics/SVG/1.1/DTD/svg11.dtd" >
<svg xmlns="http://www.w3.org/2000/svg">
<metadata></metadata>
<defs>
<font id="sentinelbook" horiz-adv-x="1456" >
<font-face units-per-em="2048" ascent="1638" descent="-410" />
<missing-glyph horiz-adv-x="364" />
<glyph unicode="&#xfb01;" horiz-adv-x="1171" d="M37 815v100h186v54q0 236 118 343t296 107q129 0 220 -62.5t91 -152.5q0 -55 -30.5 -87t-75.5 -32q-49 0 -78 29t-29 76q0 53 43 88q-51 55 -155 55q-240 0 -240 -334v-84h580v-809h174v-106h-471v106h139v709h-422v-709h147v-106h-458v106h151v709h-186z" />
<glyph unicode="&#xfb02;" horiz-adv-x="1189" d="M37 815v100h186v60q0 227 109.5 335.5t269.5 108.5q115 0 191 -47l186 43v-1309h172v-106h-471v106h139v709h-436v-709h162v-106h-473v106h151v709h-186zM383 915h436v215q-25 -10 -45 -10q-51 0 -79.5 29t-28.5 78q0 37 32 76q-43 33 -110 32q-104 0 -154.5 -78.5 t-50.5 -273.5v-68z" />
<glyph unicode="&#xfb03;" horiz-adv-x="1746" d="M37 815v100h186v56q0 231 111.5 339.5t273.5 108.5q102 0 177 -40t98 -107q109 147 327 147q131 0 221.5 -62.5t90.5 -152.5q0 -55 -31 -87t-76 -32q-47 0 -76.5 29t-29.5 76q0 49 43 88q-47 55 -154 55q-242 0 -242 -334v-84h582v-809h172v-106h-469v106h137v709h-422 v-709h150v-106h-442v106h135v709h-416v-709h158v-106h-467v106h149v709h-186zM383 915h416v54q0 84 14 141q-8 -2 -27 -2q-49 0 -79.5 28.5t-30.5 77.5q0 51 39 80q-41 41 -121 41q-106 0 -158.5 -78.5t-52.5 -267.5v-74z" />
<glyph unicode="&#xfb04;" horiz-adv-x="1763" d="M37 815v100h186v56q0 231 111.5 339.5t273.5 108.5q100 0 174 -38t99 -103q100 141 295 141q115 0 190 -47l186 43v-1309h174v-106h-473v106h142v709h-439v-709h162v-106h-454v106h135v709h-416v-709h158v-106h-467v106h149v709h-186zM383 915h416v60q0 74 12 135 q-8 -2 -25 -2q-49 0 -79.5 28.5t-30.5 77.5q0 51 39 80q-41 41 -121 41q-106 0 -158.5 -78.5t-52.5 -267.5v-74zM956 915h439v218q-23 -12 -47 -13q-49 0 -79 29t-30 78q0 41 35 76q-45 33 -113 32q-104 0 -154.5 -78.5t-50.5 -273.5v-68z" />
<glyph horiz-adv-x="2048" />
<glyph horiz-adv-x="2048" />
<glyph unicode="&#xd;" horiz-adv-x="681" />
<glyph unicode=" "  horiz-adv-x="364" />
<glyph unicode="&#x09;" horiz-adv-x="364" />
<glyph unicode="&#xa0;" horiz-adv-x="364" />
<glyph unicode="!" horiz-adv-x="544" d="M156 84q0 49 33.5 83t83 34t83 -34t33.5 -83q0 -47 -33.5 -81t-83 -34t-83 34t-33.5 81zM168 1264q0 125 104.5 125t104.5 -125q0 -51 -27 -349q-31 -281 -43 -534h-67q-8 170 -43 534q-29 274 -29 349z" />
<glyph unicode="&#x22;" horiz-adv-x="774" d="M119 868l51 199q43 178 61 223q27 53 74 53q37 0 64.5 -20t27.5 -55q0 -23 -14 -62q-49 -98 -107 -192l-102 -170zM438 868l51 199q43 178 62 223q27 53 74 53q37 0 64.5 -20t27.5 -55q0 -33 -15 -62q-49 -98 -106 -192l-102 -170z" />
<glyph unicode="#" horiz-adv-x="1357" d="M63 328v104h283l82 416h-283v102h304l77 396h121l-78 -396h338l80 396h121l-80 -396h266v-102h-284l-82 -416h282v-104h-303l-80 -410h-122l81 410h-337l-80 -410h-123l80 410h-263zM469 432h336l82 416h-338z" />
<glyph unicode="$" horiz-adv-x="1093" d="M92 270q0 53 34 92t87 39q51 0 83 -33.5t32 -80.5q0 -70 -66 -109q72 -76 250 -90v494q-199 61 -288 133.5t-89 214.5q0 133 101.5 234.5t275.5 119.5v143h96v-141q160 -6 268.5 -82t108.5 -172q0 -57 -29.5 -91t-76.5 -34q-51 0 -82 30t-31 75q0 70 63 100 q-70 78 -221 86v-471q209 -63 296 -141t87 -217q0 -137 -99 -246t-284 -123v-162h-96v162q-182 10 -301 90t-119 180zM283 977q0 -82 50 -131t179 -90v440q-111 -14 -170 -77.5t-59 -141.5zM608 90q113 10 177.5 73.5t64.5 153.5q0 84 -54.5 137.5t-187.5 98.5v-463z" />
<glyph unicode="%" horiz-adv-x="1595" d="M86 817q0 176 119 314.5t276 138.5q125 0 185 -92q80 -41 186 -41q197 0 334 161h102l-876 -1351h-136l803 1183l-6 7q-109 -86 -250 -86q-70 0 -121 16q0 -6 1.5 -20.5t1.5 -20.5q0 -102 -40 -209.5t-128 -189.5t-199 -82q-117 0 -184.5 73.5t-67.5 198.5zM233 793 q0 -76 33 -118t90 -42q104 0 180 126t76 265q0 37 -10 72q-53 27 -113 80q-70 -2 -130 -64.5t-93 -150t-33 -168.5zM891 244q0 176 118.5 314t276.5 138q102 0 162.5 -63.5t60.5 -181.5q0 -100 -39.5 -208t-126.5 -190t-198 -82q-117 0 -185.5 75t-68.5 198zM1038 219 q0 -78 33 -120t90 -42q104 0 180 127t76 267q0 74 -30.5 113.5t-90.5 37.5q-104 -2 -181 -127t-77 -256z" />
<glyph unicode="&#x26;" horiz-adv-x="1472" d="M106 301q0 129 82 223t256 166q-133 139 -133 279q0 133 96.5 221t235.5 88q133 0 213 -75t80 -177t-64.5 -180t-205.5 -152q174 -168 286 -356q119 145 193 334h-162v100h434v-100h-157q-102 -236 -250 -414q59 -96 97 -131t83 -35q39 0 68.5 29t60.5 98l74 -33 q-78 -219 -252 -219q-78 0 -135.5 41t-118.5 142q-172 -182 -391 -183q-182 0 -286 99.5t-104 234.5zM283 333.5q0 -100.5 71.5 -173t188.5 -72.5q152 0 293 141q-115 199 -326 402q-117 -55 -172 -126t-55 -171.5zM459 1014q0 -123 147 -264q184 106 185 262q0 76 -42 126 t-116 50q-80 0 -127 -50t-47 -124z" />
<glyph unicode="'" horiz-adv-x="458" d="M119 868l51 199q43 178 61 223q27 53 74 53q37 0 64.5 -20t27.5 -55q0 -23 -14 -62q-49 -98 -107 -192l-102 -170z" />
<glyph unicode="(" horiz-adv-x="739" d="M143 582q0 319 149.5 543.5t407.5 357.5l50 -76q-438 -272 -439 -825q0 -555 439 -828l-50 -76q-258 133 -407.5 357.5t-149.5 546.5z" />
<glyph unicode=")" horiz-adv-x="739" d="M-10 -246q438 272 438 826q0 555 -438 827l49 76q258 -133 407.5 -357.5t149.5 -545.5q0 -319 -149.5 -543.5t-407.5 -358.5z" />
<glyph unicode="*" horiz-adv-x="835" d="M133 1292q41 59 109 8q16 -12 43.5 -43.5t62.5 -76.5t45 -58l25 8q2 23 3 76.5t4 95t11 62.5q27 78 94 55q63 -18 39 -98q-6 -20 -28.5 -56t-52 -80t-39.5 -63l14 -22q190 55 229 55q80 0 80 -69.5t-82 -69.5q-20 0 -61 10t-93.5 24.5t-72.5 18.5l-14 -20 q8 -12 40.5 -61.5t53 -84.5t26.5 -55q27 -78 -39 -98q-65 -23 -92 55q-8 23 -11 62.5t-5 97t-2 73.5l-27 9q-12 -14 -46 -58.5t-61.5 -76t-43.5 -46.5q-63 -47 -107 8q-43 59 23 105q18 12 58 29.5t90 36t71 28.5v25q-190 70 -219 90q-68 45 -25 104z" />
<glyph unicode="+" horiz-adv-x="1073" d="M111 518v100h372v381h109v-381h371v-100h-371v-381h-109v381h-372z" />
<glyph unicode="," horiz-adv-x="438" d="M35 -225q195 92 217 219l-8 4q-23 -12 -47 -12q-39 0 -66 28.5t-27 71.5q0 47 32 81t79 34q59 0 94 -42t35 -110q1 -213 -278 -338z" />
<glyph unicode="-" horiz-adv-x="749" d="M113 430v133h524v-133h-524z" />
<glyph unicode="." horiz-adv-x="438" d="M102 84q0 49 34 83t83 34t83 -34t34 -83q0 -47 -34 -81t-83 -34t-83 34t-34 81z" />
<glyph unicode="/" horiz-adv-x="856" d="M-98 -416l790 1846h125l-790 -1846h-125z" />
<glyph unicode="0" horiz-adv-x="1142" d="M90 639q0 293 131 485.5t348 192.5q225 0 354.5 -188.5t129.5 -481.5t-132.5 -486.5t-349.5 -193.5q-225 0 -353 189.5t-128 482.5zM274 643q0 -266 77 -420.5t224 -154.5q291 0 291 573q0 270 -75.5 423t-225.5 153q-291 0 -291 -574z" />
<glyph unicode="1" horiz-adv-x="917" d="M109 1051v86q121 -2 220 41t142 122h109v-1194h286v-106h-751v106h297v961q-70 -33 -179 -33q-76 0 -124 17z" />
<glyph unicode="2" horiz-adv-x="1116" d="M98 113q0 211 402 458q168 102 236.5 183.5t68.5 201.5q0 115 -71.5 189t-192.5 74q-94 0 -164 -41t-103 -103q96 -27 97 -121q0 -51 -33 -87t-86 -36q-55 0 -92 41t-37 109q0 129 127 232.5t313 103.5q199 0 309.5 -107.5t110.5 -261.5q0 -137 -94 -238.5t-295 -203.5 q-305 -154 -358 -311l4 -7q80 45 176 45q76 0 187.5 -54t154.5 -54q74 0 115.5 63.5t78.5 221.5l80 -7q-41 -436 -295 -436q-57 0 -115.5 28t-98.5 59.5t-90 59t-91 27.5q-31 0 -51 -8q18 -29 18 -63q0 -43 -25.5 -73t-68.5 -30q-55 0 -86 41.5t-31 104.5z" />
<glyph unicode="3" horiz-adv-x="1071" d="M78 250q0 57 37 97t92 40q51 0 83 -34t32 -81q0 -72 -66 -116q82 -90 244 -90q135 0 211.5 75.5t76.5 194.5q0 131 -89 203.5t-273 72.5h-59v101h49q348 0 348 272q0 106 -67.5 170t-184.5 64q-168 0 -248 -103q84 -33 84 -115q0 -47 -30.5 -82.5t-81.5 -35.5 q-53 0 -89 37.5t-36 99.5q0 117 118.5 207t298.5 90q190 0 303 -93.5t113 -232.5q0 -121 -90 -206t-254 -117v-4q176 -20 272.5 -102.5t96.5 -209.5q0 -162 -128 -273.5t-337 -111.5q-180 0 -303 83t-123 200z" />
<glyph unicode="4" horiz-adv-x="1134" d="M55 369v110l607 828h159v-830h269v-108h-269v-265h201v-104h-567v104h202v265h-602zM186 477h473v647h-6z" />
<glyph unicode="5" horiz-adv-x="1052" d="M92 266q0 61 37 104.5t92 43.5q53 0 83 -33t30 -80q0 -41 -23.5 -74.5t-60.5 -48.5q80 -113 248 -112q137 0 215 93t78 251q0 152 -68 229.5t-193 77.5q-154 0 -278 -121l-84 25l45 665l27 21q190 -76 366 -76q166 0 303 74l27 -58q-125 -176 -348 -176q-140 0 -275 55 l-26 -399q113 90 278 90q186 0 294 -110.5t108 -280.5q0 -184 -122 -321.5t-341 -137.5q-164 0 -288 88t-124 211z" />
<glyph unicode="6" horiz-adv-x="1089" d="M98 571q0 332 152.5 539t404.5 207q145 0 230.5 -67.5t85.5 -164.5q0 -63 -35 -104t-90 -41q-53 0 -84 32t-31 79q0 37 22.5 68.5t59.5 45.5q-49 53 -158 54q-178 0 -279.5 -155t-103.5 -448q129 193 334 193q180 0 283.5 -110.5t103.5 -282.5q0 -186 -114.5 -317.5 t-321.5 -131.5q-213 0 -336 168t-123 436zM285 391q0 -133 78.5 -228t199.5 -95q125 0 189.5 91t64.5 247q0 127 -65.5 214t-188.5 87q-121 0 -199.5 -89.5t-78.5 -226.5z" />
<glyph unicode="7" horiz-adv-x="1067" d="M102 817v471h107l8 -166h8q31 92 77 134t120 42q53 0 102 -25.5t80 -57t74 -57t86 -25.5q49 0 92 20q-29 35 -29 70q0 41 29 68.5t70 27.5q47 0 75.5 -31t28.5 -78q0 -57 -34.5 -112.5t-133.5 -167.5q-150 -174 -224.5 -365.5t-90.5 -472.5q-8 -125 -103 -125 q-43 0 -69.5 28t-26.5 81q-2 162 107.5 406.5t289.5 439.5q109 119 156 182l-8 8q-111 -63 -205 -63q-80 0 -177 45t-140 45q-72 0 -111 -69t-57 -253h-101z" />
<glyph unicode="8" horiz-adv-x="1089" d="M96 313q0 227 254 328q-217 98 -217 311q0 152 117 258.5t307 106.5q180 0 289.5 -95.5t109.5 -228.5q0 -219 -235 -311q276 -104 276 -322q0 -166 -131 -279.5t-331 -113.5q-197 0 -318 100.5t-121 245.5zM250 332q0 -115 83 -192t220 -77q125 0 206 75t81 175 q0 102 -85 164t-298 125q-2 0 -6.5 1t-6.5 1q-195 -78 -194 -272zM293 991q0 -104 76.5 -167.5t253.5 -110.5q193 86 192 268q0 100 -71.5 169t-194.5 69q-119 0 -187.5 -67t-68.5 -161z" />
<glyph unicode="9" horiz-adv-x="1089" d="M96 858q0 193 115 326t321 133q213 0 336 -167t123 -435q0 -338 -147.5 -543t-401.5 -205q-160 0 -250 71t-90 173q0 61 35 101t90 40q51 0 83 -30.5t32 -77.5q0 -84 -82 -117q63 -61 180 -61q176 0 275.5 149t101.5 436q-129 -190 -334 -190q-180 0 -283.5 110.5 t-103.5 286.5zM272 870q0 -133 64.5 -221t189.5 -88q121 0 200 91.5t79 234.5q0 137 -78 233.5t-201 96.5q-125 0 -189.5 -92.5t-64.5 -254.5z" />
<glyph unicode=":" horiz-adv-x="446" d="M106 84q0 49 34 83t83 34t83 -34t34 -83q0 -47 -34 -81t-83 -34t-83 34t-34 81zM106 696q0 49 34 83t83 34t83 -34t34 -83q0 -47 -34 -80.5t-83 -33.5t-83 33.5t-34 80.5z" />
<glyph unicode=";" horiz-adv-x="446" d="M35 -225q195 92 217 219l-8 4q-23 -12 -47 -12q-39 0 -66 28.5t-27 71.5q0 47 32 81t79 34q59 0 94 -42t35 -110q1 -213 -278 -338zM111 696q0 49 33.5 83t82.5 34q47 0 82 -34t35 -83q0 -47 -35 -80.5t-82 -33.5q-49 0 -82.5 33.5t-33.5 80.5z" />
<glyph unicode="&#x3c;" horiz-adv-x="1056" d="M164 524v90l731 375v-110l-614 -310l614 -307v-115z" />
<glyph unicode="=" horiz-adv-x="1077" d="M117 334v98h841v-98h-841zM117 705v100h841v-100h-841z" />
<glyph unicode="&#x3e;" horiz-adv-x="1056" d="M162 147v111l614 309l-614 307v115l731 -377v-90z" />
<glyph unicode="?" horiz-adv-x="880" d="M51 1073q0 125 111.5 220.5t271.5 95.5q188 0 294 -95.5t106 -234.5q0 -100 -51.5 -181t-176.5 -186q-135 -115 -155 -299h-91q2 207 129 363l40 48t38 47t28.5 39t28 43t17.5 39.5t13 49.5t3 51q0 96 -62.5 160.5t-162.5 64.5q-80 0 -140.5 -34.5t-84.5 -87.5 q41 -10 66.5 -43t25.5 -76q0 -51 -33 -87t-86 -36q-55 0 -92 40t-37 99zM295 84q0 49 33.5 83t83 34t83 -34t33.5 -83q0 -47 -33.5 -81t-83 -34t-83 34t-33.5 81z" />
<glyph unicode="@" horiz-adv-x="1857" d="M123 498q0 383 254 637t624 254q307 0 520.5 -195t213.5 -512q0 -258 -136.5 -408.5t-318.5 -150.5q-113 0 -169 57.5t-40 165.5l-10 2q-127 -203 -287 -203q-104 0 -173 75t-69 208q0 117 49.5 227.5t131.5 188.5q131 125 276 125q72 0 125 -43t66 -125l49 157h133 l-156 -501q-37 -102 -25.5 -158.5t41 -74t83.5 -17.5q133 0 234 131t101 338q0 283 -182 458t-467 175q-334 0 -554 -235.5t-220 -577.5q0 -326 198.5 -519.5t532.5 -193.5q295 0 535 174l41 -63q-252 -193 -584 -193q-356 0 -586.5 212t-230.5 585zM682 414q0 -80 34 -124 t97 -44q123 0 219 158.5t96 300.5q0 76 -32.5 129t-104.5 53q-84 0 -157.5 -78t-112.5 -185.5t-39 -209.5z" />
<glyph unicode="A" horiz-adv-x="1376" d="M-8 0v106h143l488 1240h143l455 -1240h172v-106h-574v106h211l-133 375h-496l-141 -375h180v-106h-448zM438 578h424l-200 567h-7z" />
<glyph unicode="B" horiz-adv-x="1286" d="M66 0v106h227v1125h-227v104h591q496 0 496 -321q0 -98 -78 -186.5t-258 -120.5v-7q195 -14 297.5 -103t102.5 -218q0 -379 -558 -379h-593zM465 106h205q193 0 276.5 68t83.5 217q0 121 -92 191.5t-276 70.5h-197v-547zM465 752h203q301 0 301 258q0 111 -65.5 166 t-227.5 55h-211v-479z" />
<glyph unicode="C" horiz-adv-x="1382" d="M96 670q0 295 181.5 496.5t441.5 201.5q242 0 383 -162l39 156h106v-506h-94q-135 399 -432 399q-193 0 -310.5 -150.5t-117.5 -422.5q0 -285 122 -441.5t328 -156.5q174 0 287 120t141 318h115q-29 -264 -181 -409.5t-390 -145.5q-274 0 -446.5 196.5t-172.5 506.5z" />
<glyph unicode="D" horiz-adv-x="1441" d="M66 0v106h227v1125h-227v104h552q358 0 545 -174t187 -473q0 -305 -181.5 -496.5t-537.5 -191.5h-565zM465 106h170q270 0 394 140.5t124 441.5q0 270 -129 406.5t-403 136.5h-156v-1125z" />
<glyph unicode="E" horiz-adv-x="1345" d="M66 0v106h227v1125h-227v104h1142v-417h-80q-43 205 -75.5 259t-126.5 54h-461v-498h203q92 0 118.5 33t49.5 172h84v-510h-84q-20 143 -48 178t-120 35h-203v-535h457q109 0 144.5 59.5t80.5 293.5h80v-459h-1161z" />
<glyph unicode="F" horiz-adv-x="1298" d="M66 0v106h227v1125h-227v104h1144v-426h-80q-45 207 -85.5 264.5t-137.5 57.5h-442v-522h188q90 0 118 34.5t48 174.5h84v-523h-84q-16 143 -46 182t-120 39h-188v-510h250v-106h-649z" />
<glyph unicode="G" d="M96 672q0 287 177.5 491.5t437.5 204.5q236 0 376 -162l39 156h107v-500h-94q-133 393 -420 393q-199 0 -312.5 -149.5t-113.5 -421.5q0 -281 116.5 -439.5t323.5 -158.5q166 0 260 125q82 100 82 287v53h-250v106h607v-106h-183v-565h-100l-59 192q-125 -211 -379 -211 q-276 0 -445.5 202t-169.5 503z" />
<glyph unicode="H" horiz-adv-x="1581" d="M66 0v106h227v1125h-227v104h600v-104h-201v-492h649v492h-199v104h601v-104h-228v-1125h228v-106h-601v106h199v537h-649v-537h201v-106h-600z" />
<glyph unicode="I" horiz-adv-x="786" d="M80 0v106h225v1125h-225v104h627v-104h-228v-1125h228v-106h-627z" />
<glyph unicode="J" horiz-adv-x="1085" d="M61 274q0 70 40 115t100 45q55 0 91 -37t36 -94q0 -94 -97 -123q57 -106 211 -106q109 0 168.5 70.5t59.5 195.5v891h-219v104h596v-104h-205v-860q0 -188 -107 -296t-289 -108q-172 0 -278.5 89t-106.5 218z" />
<glyph unicode="K" horiz-adv-x="1468" d="M66 0v106h227v1125h-227v104h600v-104h-201v-625l610 625h-184v104h514v-104h-172l-453 -449l504 -676h164v-106h-561v106h184l-407 560l-199 -197v-363h201v-106h-600z" />
<glyph unicode="L" horiz-adv-x="1241" d="M66 0v106h227v1125h-227v104h639v-104h-240v-1125h403q88 0 123 68t94 328h80v-502h-1099z" />
<glyph unicode="M" horiz-adv-x="1902" d="M70 0v106h213v1125h-213v104h499l379 -1042h6l387 1042h490v-104h-221v-1125h221v-106h-576v106h181v1117h-13l-469 -1225h-73l-467 1225h-13v-1117h193v-106h-524z" />
<glyph unicode="N" horiz-adv-x="1570" d="M70 0v106h213v1125h-213v104h401l717 -1036h10v932h-207v104h531v-104h-203v-1264h-113l-794 1151h-11v-1012h205v-106h-536z" />
<glyph unicode="O" d="M96 668q0 297 185.5 497.5t447.5 200.5q268 0 449.5 -195.5t181.5 -502.5q0 -299 -184.5 -500t-446.5 -201q-268 0 -450.5 197.5t-182.5 503.5zM293 667.5q0 -272.5 115.5 -432t320.5 -159.5q203 0 319.5 158.5t116.5 433.5q0 272 -116.5 430.5t-319.5 158.5 q-205 0 -320.5 -158.5t-115.5 -431z" />
<glyph unicode="P" horiz-adv-x="1247" d="M66 0v106h227v1125h-227v104h581q285 0 410 -106.5t125 -274.5q0 -172 -131 -286.5t-396 -114.5h-190v-447h250v-106h-649zM465 653h186q338 0 338 301q0 276 -336 277h-188v-578z" />
<glyph unicode="Q" d="M96 668q0 297 185.5 497.5t447.5 200.5q268 0 449.5 -195.5t181.5 -502.5q0 -178 -69.5 -326.5t-190.5 -243.5q59 -100 100 -137t88 -37q104 0 135 197h97q-25 -338 -254 -338q-98 0 -166 58.5t-127 178.5q-117 -53 -244 -53q-268 0 -450.5 197.5t-182.5 503.5zM293 668 q0 -299 141 -459q0 115 70.5 193.5t197.5 78.5q102 0 179 -67.5t153 -196.5q131 164 131 451q0 272 -116.5 430.5t-319.5 158.5q-205 0 -320.5 -158.5t-115.5 -430.5zM524 221q0 -145 219 -145q100 0 185 47q-57 123 -115.5 187.5t-136.5 64.5q-70 0 -111 -44t-41 -110z" />
<glyph unicode="R" horiz-adv-x="1386" d="M66 0v106h227v1125h-227v104h653q248 0 367.5 -96t119.5 -250q0 -117 -77.5 -207t-243.5 -120v-13q137 -33 196.5 -101.5t69.5 -189.5l12 -168q8 -94 72 -94q51 0 96 97l70 -33q-70 -182 -215 -183q-205 0 -211 240l-4 162q-4 121 -55.5 171t-196.5 50h-254v-494h225 v-106h-624zM465 698h242q303 0 303 289q0 244 -277 244h-268v-533z" />
<glyph unicode="S" horiz-adv-x="1171" d="M113 -27v465h92q96 -199 201.5 -285.5t252.5 -86.5q121 0 194 64.5t73 180.5q0 53 -19.5 94t-46 68t-80 50.5t-97.5 37.5t-122 35q-80 20 -129 36.5t-112.5 49.5t-100.5 69.5t-62.5 97t-25.5 136.5q0 162 112.5 271.5t297.5 109.5q100 0 191 -40t151 -107l41 141h100 v-440h-92q-141 350 -402 350q-104 0 -171.5 -62.5t-67.5 -171.5q0 -55 20.5 -97t46 -67.5t82 -50t91 -35t112.5 -30.5q74 -18 115 -30.5t101.5 -35t94 -49.5t67.5 -63.5t49 -88t15 -114.5q0 -176 -121.5 -292t-308.5 -116q-242 0 -397 166l-45 -160h-100z" />
<glyph unicode="T" horiz-adv-x="1372" d="M94 872v463h1184v-463h-78q-55 242 -94 304.5t-154 62.5h-180v-1133h236v-106h-643v106h235v1133h-182q-113 0 -152 -62.5t-94 -304.5h-78z" />
<glyph unicode="U" horiz-adv-x="1503" d="M45 1231v104h576v-104h-207v-782q0 -188 96 -274.5t289 -86.5q164 0 260 96q94 94 94 314v733h-207v104h514v-104h-188v-809q0 -199 -136 -327t-388 -128q-248 0 -377 119t-129 317v828h-197z" />
<glyph unicode="V" horiz-adv-x="1388" d="M-8 1231v104h573v-104h-211l369 -1024h12l393 1024h-180v104h449v-104h-144l-491 -1239h-133l-465 1239h-172z" />
<glyph unicode="W" horiz-adv-x="2015" d="M-6 1231v104h567v-104h-207l308 -1008h10l299 891l-33 117h-172v104h569v-104h-215l293 -1008h10l326 1008h-180v104h446v-104h-143l-418 -1239h-145l-283 950l-326 -950h-143l-389 1239h-174z" />
<glyph unicode="X" horiz-adv-x="1376" d="M20 0v106h166l408 564l-377 561h-180v104h567v-104h-182l289 -451l313 451h-193v104h500v-104h-166l-383 -533l398 -592h178v-106h-565v106h184l-313 482l-340 -482h194v-106h-498z" />
<glyph unicode="Y" horiz-adv-x="1304" d="M12 1231v104h557v-104h-184l307 -559l330 559h-172v104h453v-104h-158l-408 -668v-457h207v-106h-586v106h205v455l-383 670h-168z" />
<glyph unicode="Z" horiz-adv-x="1247" d="M80 0v76l854 1155h-512q-66 0 -96.5 -20.5t-57 -91t-65.5 -240.5h-82v456h1036v-73l-848 -1156h553q63 0 95 25t57.5 96.5t64.5 245.5h80v-473h-1079z" />
<glyph unicode="[" horiz-adv-x="692" d="M182 -311v1786h510v-101h-350v-1585h350v-100h-510z" />
<glyph unicode="\" horiz-adv-x="856" d="M39 1430h125l790 -1846h-125z" />
<glyph unicode="]" horiz-adv-x="692" d="M0 -211h350v1585h-350v101h510v-1786h-510v100z" />
<glyph unicode="^" horiz-adv-x="681" d="M61 1049l242 403h82l233 -403h-81l-197 237l-199 -237h-80z" />
<glyph unicode="_" horiz-adv-x="901" d="M-4 0v111h909v-111h-909z" />
<glyph unicode="`" horiz-adv-x="487" d="M49 1405q0 33 21.5 54.5t52.5 21.5q37 0 64.5 -33t58.5 -111l102 -258h-78l-133 170q-88 113 -88 156z" />
<glyph unicode="a" horiz-adv-x="989" d="M94 225q0 98 64 164q51 51 127.5 78t222.5 49q98 16 121.5 25.5t23.5 33.5v91q0 98 -47 141t-143 43q-111 0 -176 -53q55 -29 55 -95q0 -45 -28.5 -74.5t-78 -29.5t-79 30.5t-29.5 80.5q0 98 107.5 162.5t254.5 64.5q324 0 324 -277v-481q0 -45 14.5 -63.5t46.5 -18.5 q47 0 82 82l62 -35q-37 -80 -80 -116.5t-110.5 -36.5t-110.5 42t-45 128h-6q-47 -78 -130.5 -126t-177.5 -48q-125 0 -194.5 65.5t-69.5 173.5zM268 254q0 -160 160 -160q84 0 154.5 59.5t70.5 137.5v182q-23 -8 -100 -20q-160 -25 -222.5 -67t-62.5 -132z" />
<glyph unicode="b" horiz-adv-x="1077" d="M12 1296v111h312v-684q53 102 136 158.5t177 56.5q137 0 225 -88q129 -127 129 -381q0 -250 -137 -387q-98 -98 -238 -98q-100 0 -181 56t-126 153l-59 -203h-84v1306h-154zM319 438q0 -162 78 -255t187 -93q106 0 169.5 99.5t63.5 275.5q0 174 -61.5 270t-167.5 96 q-113 0 -191 -111.5t-78 -281.5z" />
<glyph unicode="c" horiz-adv-x="966" d="M80 442q0 219 129 357.5t336 138.5q143 0 245.5 -83t102.5 -177q0 -61 -33 -101t-86 -40q-51 0 -80.5 31.5t-29.5 78.5q0 37 21.5 67.5t55.5 43.5q-63 94 -202 94q-127 0 -207 -105.5t-80 -283.5q0 -176 79 -275.5t216 -99.5q193 0 270 211h88q-39 -154 -143 -235.5 t-254 -81.5q-190 0 -309 130t-119 330z" />
<glyph unicode="d" horiz-adv-x="1095" d="M86 449q0 250 141 391q98 98 238 98q195 0 287 -178v536h-156v111h313v-1301h148v-106h-301v201q-107 -217 -310 -217q-137 0 -227 90q-133 131 -133 375zM260 459q0 -172 68 -270.5t170 -98.5q109 0 184.5 107.5t75.5 277.5q0 160 -71 258t-183.5 98t-178 -99 t-65.5 -273z" />
<glyph unicode="e" horiz-adv-x="974" d="M80 450.5q0 208.5 126 348t312 139.5q188 0 286 -143q95 -137 95 -327v-15h-647q2 -176 82 -269.5t213 -93.5q190 0 262 180h86q-41 -141 -140.5 -214.5t-242.5 -73.5q-199 0 -315.5 130t-116.5 338.5zM254 541h481q-22 309 -227 309q-104 0 -172 -80t-82 -229z" />
<glyph unicode="f" horiz-adv-x="684" d="M37 815v100h186v60q0 227 108.5 335.5t268.5 108.5q113 0 185.5 -49t72.5 -129q0 -49 -29.5 -83t-72.5 -34q-51 0 -80 29t-29 78q0 43 35 78q-32 26 -93 26h-5q-102 0 -151.5 -78.5t-49.5 -273.5v-68h272v-100h-272v-709h215v-106h-526v106h151v709h-186z" />
<glyph unicode="g" horiz-adv-x="960" d="M49 -117q0 66 54.5 118t142.5 67v6q-152 45 -152 149q0 51 49.5 96.5t124.5 61.5q-162 82 -162 252q0 139 102.5 221t258.5 82q78 0 151 -29q106 182 248 183q53 0 86 -30t33 -77q0 -39 -25.5 -66.5t-64.5 -27.5t-60.5 22.5t-21.5 59.5q0 12 2 20h-3q-28 0 -64 -31 q-37 -32 -64 -83q143 -88 143 -238q0 -141 -99 -221t-261 -80q-23 0 -65 3t-60 3q-47 0 -78 -25.5t-31 -58.5q0 -82 162 -82h244q270 0 270 -207q0 -129 -125 -215t-338 -86q-182 0 -289.5 59.5t-107.5 153.5zM455 -244q141 0 227 48.5t86 125.5q0 115 -145 115h-230 q-192 0 -192 -144q0 -145 254 -145zM272 635q0 -109 54.5 -164t148.5 -55q88 0 136 57t48 164q0 96 -53 158.5t-145 62.5q-188 0 -189 -223z" />
<glyph unicode="h" horiz-adv-x="1138" d="M45 0v106h154v1190h-154v111h313v-719q141 248 344 248q119 0 184.5 -76t65.5 -215v-539h154v-106h-453v106h142v467q0 137 -54 191q-41 43 -116 43q-100 0 -183.5 -93t-83.5 -206v-402h140v-106h-453z" />
<glyph unicode="i" horiz-adv-x="614" d="M74 0v106h174v709h-174v107h332v-816h174v-106h-506zM199 1245q0 51 32.5 85t83.5 34q49 0 81 -33t32 -84t-32 -84t-81 -33q-51 0 -83.5 31t-32.5 84z" />
<glyph unicode="j" horiz-adv-x="575" d="M-104 -174q0 49 31.5 84t78.5 35t76 -29t29 -70q0 -47 -35 -82q20 -14 53 -14q123 0 123 205v860h-172v107h332v-885q0 -180 -78 -275.5t-223 -95.5q-90 0 -152.5 46t-62.5 114zM205 1245q0 51 31.5 85t82.5 34q49 0 81 -33t32 -84t-32 -84t-81 -33q-51 0 -82.5 31 t-31.5 84z" />
<glyph unicode="k" horiz-adv-x="1069" d="M45 0v106h154v1190h-154v111h313v-985l373 395h-153v105h426v-107h-140l-252 -256l320 -453h117v-106h-420v104h123l-244 355l-150 -152v-201h127v-106h-440z" />
<glyph unicode="l" horiz-adv-x="581" d="M37 0v106h174v1190h-174v111h334v-1301h172v-106h-506z" />
<glyph unicode="m" horiz-adv-x="1718" d="M70 0v106h153v709h-153v107h309v-238q145 252 338 252q219 0 237 -244q147 244 340 244q115 0 177.5 -75t62.5 -218v-537h154v-106h-443v106h131v467q0 141 -51 195q-37 37 -111 37q-96 0 -176 -93.5t-80 -203.5v-402h132v-106h-420v106h129v467q0 143 -49 195 q-39 37 -111 37q-98 0 -177 -93.5t-79 -203.5v-402h129v-106h-442z" />
<glyph unicode="n" horiz-adv-x="1163" d="M70 0v106h153v709h-153v107h309v-238q145 252 348 252q119 0 184.5 -76t65.5 -215v-539h153v-106h-452v106h141v467q0 137 -53 191q-41 43 -117 43q-100 0 -183 -93t-83 -206v-402h139v-106h-452z" />
<glyph unicode="o" horiz-adv-x="1048" d="M80 453q0 213 127 349t317 136q197 0 321 -130t124 -341q0 -213 -127.5 -349t-317.5 -136q-197 0 -320.5 130t-123.5 341zM252 459q0 -190 78.5 -288.5t201.5 -98.5q119 0 191 98t72 290.5t-78 290t-201 97.5q-119 0 -191.5 -98.5t-72.5 -290.5z" />
<glyph unicode="p" horiz-adv-x="1103" d="M45 -201h154v1016h-154v107h307v-215q102 231 316 231q133 0 225 -92q125 -125 125 -369q0 -242 -137 -379q-98 -98 -234 -98q-195 0 -291 188v-389h201v-106h-512v106zM352 453q0 -152 69.5 -248t184.5 -96q109 0 173.5 96t64.5 276q0 178 -64.5 264t-165.5 86 q-104 0 -183 -109.5t-79 -268.5z" />
<glyph unicode="q" horiz-adv-x="1069" d="M86 463q0 109 37 209t100 164q102 102 240 102q100 0 179 -56.5t124 -152.5l59 201h84v-1131h154v-106h-510v106h199v418q-100 -217 -308 -217q-137 0 -233 96q-125 125 -125 367zM260 463q0 -182 65.5 -268t170.5 -86q106 0 182 104t76 266q0 154 -71.5 253t-180.5 99 q-111 0 -176.5 -96t-65.5 -272z" />
<glyph unicode="r" horiz-adv-x="829" d="M70 0v106h153v709h-153v107h309v-217q43 113 118.5 171t159.5 58q68 0 109 -41t41 -100q0 -49 -32 -84t-79 -35t-78.5 29.5t-31.5 76.5q0 23 8 39h-11q-64 -1 -118 -63q-59 -68 -82 -152v-498h180v-106h-493z" />
<glyph unicode="s" horiz-adv-x="886" d="M92 -18v348h94q37 -123 117 -193.5t189 -70.5q84 0 132 38.5t48 104.5q0 68 -54.5 106.5t-195.5 77.5q-170 47 -241.5 110.5t-71.5 168.5q0 109 87 187.5t222 78.5q168 0 239 -111l23 111h90v-315h-90q-51 121 -108.5 176t-155.5 55q-68 0 -116 -36t-48 -97 q0 -63 56.5 -103t185.5 -77q174 -47 245.5 -106.5t71.5 -172.5q0 -111 -89 -195.5t-230 -84.5q-184 0 -287 129l-23 -129h-90z" />
<glyph unicode="t" horiz-adv-x="716" d="M14 815v100h187v246l159 21v-267h302v-100h-302v-579q0 -143 115 -144q96 0 154 164l73 -29q-70 -245 -266 -245h-2q-115 0 -174 65.5t-59 183.5v584h-187z" />
<glyph unicode="u" horiz-adv-x="1128" d="M37 815v107h309v-574q0 -141 53 -192q35 -41 113 -41q100 0 182 93t82 204v403h-158v107h318v-816h151v-106h-307v236q-147 -252 -346 -252q-117 0 -181.5 75.5t-64.5 216.5v539h-151z" />
<glyph unicode="v" horiz-adv-x="1011" d="M0 815v107h461v-107h-160l231 -651h7l247 651h-143v107h369v-107h-111l-332 -827h-127l-315 827h-127z" />
<glyph unicode="w" horiz-adv-x="1540" d="M4 815v107h449v-107h-156l211 -651h4l225 561l-30 90h-127v107h450v-107h-166l221 -651h7l223 651h-144v107h365v-107h-111l-299 -827h-131l-209 594l-241 -594h-129l-285 827h-127z" />
<glyph unicode="x" horiz-adv-x="997" d="M25 0v106h108l287 338l-285 371h-110v107h434v-103h-142l205 -280l226 280h-132v103h359v-107h-105l-286 -340l280 -369h111v-106h-426v102h139l-207 281l-229 -281h127v-102h-354z" />
<glyph unicode="y" horiz-adv-x="1001" d="M0 815v107h459v-107h-160l238 -633l245 633h-141v107h369v-107h-113l-317 -778q-84 -207 -173.5 -289t-199.5 -82q-82 0 -130 40t-48 104q0 51 32.5 86.5t81.5 35.5q47 0 76 -29.5t29 -74.5q0 -41 -19 -70q63 4 115.5 55.5t108.5 188.5l-326 813h-127z" />
<glyph unicode="z" horiz-adv-x="935" d="M72 0v88l600 743h-326q-78 0 -105.5 -39.5t-62.5 -191.5h-76v322h766v-88l-604 -744h375q76 0 101.5 44t54.5 210h77v-344h-800z" />
<glyph unicode="{" horiz-adv-x="794" d="M33 532v99h61q141 0 211 51t70 137q0 49 -15.5 149.5t-15.5 145.5q0 166 107.5 260t322.5 103v-95q-152 -12 -210 -73.5t-58 -178.5q0 -29 8 -120.5t8 -139.5q0 -248 -278 -284v-6q279 -37 278 -287q0 -47 -8 -139.5t-8 -120.5q0 -117 58.5 -178.5t209.5 -73.5v-94 q-215 8 -322.5 102t-107.5 260q0 45 15.5 145.5t15.5 151.5q0 86 -69.5 136t-211.5 50h-61z" />
<glyph unicode="|" horiz-adv-x="571" d="M229 -416v1846h113v-1846h-113z" />
<glyph unicode="}" horiz-adv-x="794" d="M20 -219q152 12 210.5 73.5t58.5 178.5q0 29 -8.5 121t-8.5 139q0 248 279 285v6q-279 37 -279 286q0 47 8.5 139.5t8.5 120.5q0 117 -58.5 178.5t-210.5 73.5v95q215 -8 323 -102.5t108 -260.5q0 -45 -15.5 -145.5t-15.5 -151.5q0 -86 69.5 -136t210.5 -50h62v-99h-62 q-141 0 -210.5 -51t-69.5 -137q0 -49 15.5 -149.5t15.5 -145.5q0 -166 -107.5 -260t-323.5 -102v94z" />
<glyph unicode="~" horiz-adv-x="759" d="M84 514q18 137 60 193.5t122 56.5q57 0 143.5 -58.5t114.5 -58.5q63 0 86 131h74q-18 -137 -60 -193.5t-122 -56.5q-57 0 -143.5 58.5t-114.5 58.5q-63 0 -86 -131h-74z" />
<glyph unicode="&#xa1;" horiz-adv-x="544" d="M182 1274q0 47 34 81t83 34t83 -34t34 -81q0 -49 -34 -83t-83 -34t-83 34t-34 83zM195 94q0 51 26 348q31 281 43 535h68q8 -170 43 -535q29 -274 28 -348q0 -125 -104 -125t-104 125z" />
<glyph unicode="&#xa2;" horiz-adv-x="1052" d="M121 442q0 209 123 345.5t325 148.5l17 182l94 -6l-16 -178q137 -14 229 -92t92 -166q0 -59 -32.5 -95t-86.5 -36q-51 0 -81.5 31.5t-30.5 78.5q0 37 21.5 68t55.5 43q-47 70 -176 84l-69 -762h18q98 0 174 54.5t115 156.5h86q-37 -150 -144.5 -231.5t-254.5 -85.5 l-17 -191l-94 6l14 193q-164 27 -263 150.5t-99 301.5zM293 463q0 -139 53 -232.5t150 -126.5l67 746q-123 -16 -196.5 -119.5t-73.5 -267.5z" />
<glyph unicode="&#xa3;" horiz-adv-x="1202" d="M68 113q0 84 76.5 146.5t222.5 62.5q39 0 71 -7q18 57 19 117q0 66 -41 152h-299v104h243q-47 98 -47 197q0 197 123 314.5t305 117.5q156 0 250 -79t94 -183q0 -66 -36.5 -108t-92.5 -42q-53 0 -86.5 33t-33.5 86q0 84 75 113q-49 82 -180 82q-111 0 -183.5 -67 t-72.5 -181q0 -37 9.5 -78t16.5 -63.5t28.5 -76t25.5 -65.5h385v-104h-356q6 -61 6 -64q0 -111 -62 -227q78 -25 198 -92.5t171 -67.5q63 0 100 52.5t58 176.5l82 -6q-12 -205 -74 -296t-189 -91q-66 0 -132 34t-145 91.5t-124 79.5q-86 -207 -248 -207q-68 0 -112.5 40 t-44.5 106zM174 125q0 -31 19.5 -48.5t46.5 -17.5q86 0 143 150q-43 14 -78 14q-63 0 -97 -29.5t-34 -68.5z" />
<glyph unicode="&#xa5;" horiz-adv-x="1339" d="M59 1184v102h535v-102h-182l286 -531l308 531h-168v102h444v-102h-149l-334 -551h327v-96h-378v-148h378v-96h-378v-187h241v-106h-647v106h244v187h-383v96h383v148h-383v96h329l-313 551h-160z" />
<glyph unicode="&#xa7;" horiz-adv-x="1056" d="M141 -2q0 53 32 91t83 38q49 0 80 -32t31 -75q0 -66 -62 -100q76 -70 230 -70q111 0 166 46.5t55 112t-53.5 114.5t-204.5 100q-195 66 -267.5 130.5t-72.5 172.5q0 82 62.5 149.5t166.5 106.5v11q-197 90 -197 233q0 123 104.5 208t268.5 85q135 0 231.5 -67.5 t96.5 -157.5q0 -53 -28.5 -86t-76 -33t-77 29.5t-29.5 70.5q0 59 53 90q-68 61 -176 62q-106 0 -164.5 -46t-58.5 -110q0 -61 55 -106t213 -101q184 -63 255 -127.5t71 -175.5q0 -78 -57.5 -148.5t-157.5 -109.5v-10q186 -82 186 -232q0 -125 -95.5 -214t-277.5 -89 q-160 0 -272.5 69t-112.5 171zM309 557q0 -68 52.5 -112t187.5 -87l53 -18q88 27 133 77t45 111q0 66 -49 112t-178 89l-59 21q-184 -57 -185 -193z" />
<glyph unicode="&#xa8;" horiz-adv-x="659" d="M47 1237q0 47 29.5 80t75 33t76 -33t30.5 -80t-30.5 -79t-76 -32t-75 32t-29.5 79zM401 1237q0 47 31 80t76 33t74.5 -33t29.5 -80t-29.5 -79t-74.5 -32t-76 32t-31 79z" />
<glyph unicode="&#xa9;" horiz-adv-x="1611" d="M70 676q0 311 213 524t522 213q311 0 524 -213t213 -524q0 -313 -213 -527.5t-524 -214.5q-309 0 -522 214t-213 528zM150 676q0 -283 190.5 -477.5t464.5 -194.5q279 0 468 194.5t189 477.5q0 281 -190.5 474t-466.5 193q-274 0 -464.5 -193.5t-190.5 -473.5zM459 684 q0 164 103.5 274.5t250.5 110.5q133 0 209 -90l22 88h72v-279h-63q-74 209 -234 209q-109 0 -171 -79.5t-62 -227.5q0 -156 63.5 -238.5t177.5 -82.5q98 0 155.5 62.5t72.5 170.5h73q-16 -147 -101 -228t-218 -81q-154 0 -252 109.5t-98 281.5z" />
<glyph unicode="&#xaa;" horiz-adv-x="825" d="M111 811q0 76 63 131q61 51 252 82q61 10 76.5 17.5t15.5 25.5v59q0 70 -32.5 98.5t-102.5 28.5q-76 0 -125 -32q39 -23 39 -70q0 -33 -21.5 -55.5t-58.5 -22.5t-59.5 22.5t-22.5 57.5q0 72 81 121t190 49q238 0 237 -203v-342q0 -59 45 -59q33 0 60 61l51 -26 q-53 -115 -148 -115q-106 0 -119 115h-6q-78 -119 -217 -119q-92 0 -145 48t-53 128zM246 831q-1 -110 112 -110q59 0 109.5 43t50.5 98v121q-16 -6 -63 -14q-119 -18 -164 -46t-45 -92z" />
<glyph unicode="&#xab;" horiz-adv-x="1007" d="M88 458.5q0 26.5 55 82.5l308 311l59 -41l-256 -350l256 -355l-59 -40l-308 311q-55 55 -55 81.5zM485.5 458.5q-0.5 26.5 55.5 82.5l305 311l61 -41l-256 -350l256 -355l-61 -40l-305 311q-55 55 -55.5 81.5z" />
<glyph unicode="&#xad;" horiz-adv-x="749" d="M113 430v133h524v-133h-524z" />
<glyph unicode="&#xae;" horiz-adv-x="1058" d="M76 962.5q0 194.5 130 322.5t322 128q195 0 325 -128t130 -322.5t-130 -324.5t-325 -130q-193 0 -322.5 130t-129.5 324.5zM143 963q0 -178 106.5 -288t278.5 -110q176 0 281.5 109.5t105.5 288.5q0 176 -105 284.5t-282 108.5q-174 0 -279.5 -108.5t-105.5 -284.5z M311 735v47h74v371h-74v49h238q96 0 139 -36t43 -87q0 -41 -32.5 -72.5t-100.5 -39.5v-6q100 -16 111 -101l4 -47q2 -35 20 -35q20 0 33 37l33 -12q-25 -78 -86 -78q-80 0 -86 96l-2 45q-2 74 -82 74h-76v-158h74v-47h-230zM467 985h74q98 0 98 88q0 80 -92 80h-80v-168z " />
<glyph unicode="&#xaf;" horiz-adv-x="657" d="M72 1118v127h514v-127h-514z" />
<glyph unicode="&#xb0;" horiz-adv-x="800" d="M78 1036.5q0 137.5 91 233.5t232 96q147 0 234.5 -92t87.5 -232q0 -137 -90.5 -232t-233.5 -95q-147 0 -234 92t-87 229.5zM207 1040.5q0 -108.5 55.5 -170t143.5 -61.5q86 0 138 59.5t52 171.5q0 109 -56.5 170.5t-144.5 61.5q-82 0 -135 -61.5t-53 -170z" />
<glyph unicode="&#xb1;" horiz-adv-x="1103" d="M172 59v95h760v-95h-760zM176 664v90h328v333h100v-333h326v-90h-326v-338h-100v338h-328z" />
<glyph unicode="&#xb4;" horiz-adv-x="485" d="M113 1079l102 258q29 78 56.5 111t66.5 33q31 0 52.5 -21.5t21.5 -54.5q0 -43 -88 -156l-134 -170h-77z" />
<glyph unicode="&#xb6;" horiz-adv-x="1312" d="M121 803q0 195 138 316.5t425 121.5h555v-104h-188v-1350h-115v1350h-160v-1350h-112v561q-250 2 -396.5 125t-146.5 330z" />
<glyph unicode="&#xb7;" horiz-adv-x="438" d="M102 655q0 49 34 83t83 34t83 -33.5t34 -83.5q0 -47 -34 -80.5t-83 -33.5t-83 33.5t-34 80.5z" />
<glyph unicode="&#xb8;" horiz-adv-x="577" d="M25 -424l38 66q78 -47 152 -48q53 0 85 24t32 65q0 45 -41 69.5t-103 24.5q-41 0 -77 -10l-29 38l197 205h100l-148 -147l2 -6q98 -2 157 -47.5t59 -114.5q0 -82 -61 -131t-157 -49q-115 0 -206 61z" />
<glyph unicode="&#xba;" horiz-adv-x="851" d="M94 972.5q0 153.5 96.5 252t235.5 98.5q145 0 238.5 -94t93.5 -246q0 -154 -95.5 -252t-236.5 -98q-145 0 -238.5 93t-93.5 246.5zM227 975q0 -131 58.5 -199.5t146.5 -68.5q86 0 139.5 70.5t53.5 203.5q0 131 -58.5 199.5t-146.5 68.5q-86 0 -139.5 -69.5t-53.5 -204.5z " />
<glyph unicode="&#xbb;" horiz-adv-x="1007" d="M100 106l256 351l-256 354l62 41l305 -311q55 -55 55 -82t-55 -82l-305 -311zM498 106l256 351l-256 354l59 41l307 -311q55 -55 55.5 -82t-55.5 -82l-307 -311z" />
<glyph unicode="&#xbf;" horiz-adv-x="864" d="M37 299q0 100 51 181t176 186q135 115 156 299h90q-2 -207 -129 -363l-40 -48t-38 -47t-28.5 -39t-27.5 -43t-17.5 -40t-13.5 -49.5t-3 -50.5q0 -96 62.5 -161t162.5 -65q80 0 140.5 35t85.5 88q-41 10 -67 43t-26 76q0 51 33 87t86 36q55 0 92 -40t37 -99 q0 -125 -111.5 -220.5t-271.5 -95.5q-188 0 -293.5 95.5t-105.5 234.5zM342 1274q0 47 34 81t83 34t82.5 -34t33.5 -81q0 -49 -33.5 -83t-82.5 -34t-83 34t-34 83z" />
<glyph unicode="&#xc0;" horiz-adv-x="1376" d="M-8 0v106h143l488 1240h143l455 -1240h172v-106h-574v106h211l-133 375h-496l-141 -375h180v-106h-448zM438 578h424l-200 567h-7zM465 1835q0 33 21.5 54.5t52.5 21.5q37 0 64.5 -33t58.5 -111l102 -258h-78l-133 170q-88 113 -88 156z" />
<glyph unicode="&#xc1;" horiz-adv-x="1376" d="M-8 0v106h143l488 1240h143l455 -1240h172v-106h-574v106h211l-133 375h-496l-141 -375h180v-106h-448zM438 578h424l-200 567h-7zM645 1509l103 258q29 78 56 111t66 33q31 0 52.5 -21.5t21.5 -54.5q0 -43 -88 -156l-133 -170h-78z" />
<glyph unicode="&#xc2;" horiz-adv-x="1376" d="M-8 0v106h143l488 1240h143l455 -1240h172v-106h-574v106h211l-133 375h-496l-141 -375h180v-106h-448zM436 1511l221 371h76l223 -371h-79l-181 209l-180 -209h-80zM438 578h424l-200 567h-7z" />
<glyph unicode="&#xc3;" horiz-adv-x="1376" d="M-8 0v106h143l488 1240h143l455 -1240h172v-106h-574v106h211l-133 375h-496l-141 -375h180v-106h-448zM397 1522q18 137 60.5 193.5t122.5 56.5q57 0 143 -58.5t115 -58.5q61 0 84 129h75q-18 -137 -60 -194.5t-122 -57.5q-57 0 -143 59.5t-115 59.5q-61 0 -84 -129h-76 zM438 578h424l-200 567h-7z" />
<glyph unicode="&#xc4;" horiz-adv-x="1376" d="M-8 0v106h143l488 1240h143l455 -1240h172v-106h-574v106h211l-133 375h-496l-141 -375h180v-106h-448zM414 1667q0 47 29.5 80t74.5 33t76 -33t31 -80t-31 -79t-76 -32t-74.5 32t-29.5 79zM438 578h424l-200 567h-7zM768 1667q0 47 30.5 80t76 33t75 -33t29.5 -80 t-29.5 -79t-75 -32t-76 32t-30.5 79z" />
<glyph unicode="&#xc5;" horiz-adv-x="1376" d="M-8 0v106h143l481 1229q-68 18 -103.5 72.5t-35.5 122.5q0 86 56.5 146.5t157 60.5t156.5 -60.5t56 -146.5q0 -68 -34.5 -121t-100.5 -72l453 -1231h172v-106h-574v106h211l-133 375h-494l-143 -375h180v-106h-448zM438 578h424l-200 567h-7zM569 1530q0 -59 33 -99 t88 -40t88 39.5t33 99.5q0 63 -33 102t-88 39t-88 -39t-33 -102z" />
<glyph unicode="&#xc6;" horiz-adv-x="1961" d="M-49 0v106h164l651 1125h-211v104h1270v-417h-82q-43 205 -75 259t-126 54h-461v-498h203q90 0 116.5 33t49.5 172h84v-510h-84q-20 143 -47 178t-119 35h-203v-535h457q109 0 143.5 59.5t79.5 293.5h82v-459h-1161v106h225v396h-436l-225 -396h188v-106h-483zM528 598 h379v633h-14z" />
<glyph unicode="&#xc7;" horiz-adv-x="1382" d="M96 670q0 295 181.5 496.5t441.5 201.5q242 0 383 -162l39 156h106v-506h-94q-135 399 -432 399q-193 0 -310.5 -150.5t-117.5 -422.5q0 -285 122 -441.5t328 -156.5q174 0 287 120t141 318h115q-27 -236 -151.5 -378t-325.5 -171l-111 -110l2 -6q98 -2 156.5 -47.5 t58.5 -114.5q0 -82 -60.5 -131t-156.5 -49q-115 0 -206 61l38 66q78 -47 152 -48q53 0 85 24t32 65q0 45 -41 69.5t-103 24.5q-41 0 -77 -10l-29 38l156 162q-272 4 -440.5 201t-168.5 502z" />
<glyph unicode="&#xc8;" horiz-adv-x="1345" d="M66 0v106h227v1125h-227v104h1142v-417h-80q-43 205 -75.5 259t-126.5 54h-461v-498h203q92 0 118.5 33t49.5 172h84v-510h-84q-20 143 -48 178t-120 35h-203v-535h457q109 0 144.5 59.5t80.5 293.5h80v-459h-1161zM500 1835q0 33 21.5 54.5t51.5 21.5q37 0 65 -33 t58 -111l103 -258h-78l-133 170q-88 113 -88 156z" />
<glyph unicode="&#xc9;" horiz-adv-x="1345" d="M66 0v106h227v1125h-227v104h1142v-417h-80q-43 205 -75.5 259t-126.5 54h-461v-498h203q92 0 118.5 33t49.5 172h84v-510h-84q-20 143 -48 178t-120 35h-203v-535h457q109 0 144.5 59.5t80.5 293.5h80v-459h-1161zM678 1509l102 258q29 78 56.5 111t66.5 33 q31 0 52.5 -21.5t21.5 -54.5q0 -43 -88 -156l-133 -170h-78z" />
<glyph unicode="&#xca;" horiz-adv-x="1345" d="M66 0v106h227v1125h-227v104h1142v-417h-80q-43 205 -75.5 259t-126.5 54h-461v-498h203q92 0 118.5 33t49.5 172h84v-510h-84q-20 143 -48 178t-120 35h-203v-535h457q109 0 144.5 59.5t80.5 293.5h80v-459h-1161zM469 1511l221 371h76l223 -371h-80l-180 209l-180 -209 h-80z" />
<glyph unicode="&#xcb;" horiz-adv-x="1345" d="M66 0v106h227v1125h-227v104h1142v-417h-80q-43 205 -75.5 259t-126.5 54h-461v-498h203q92 0 118.5 33t49.5 172h84v-510h-84q-20 143 -48 178t-120 35h-203v-535h457q109 0 144.5 59.5t80.5 293.5h80v-459h-1161zM446 1667q0 47 30 80t75 33t75.5 -33t30.5 -80 t-30.5 -79t-75.5 -32t-75 32t-30 79zM801 1667q0 47 30.5 80t75.5 33t75 -33t30 -80t-30 -79t-75 -32t-75.5 32t-30.5 79z" />
<glyph unicode="&#xcc;" horiz-adv-x="786" d="M80 0v106h225v1125h-225v104h627v-104h-228v-1125h228v-106h-627zM160 1835q0 33 21.5 54.5t51.5 21.5q37 0 65 -33t58 -111l103 -258h-78l-133 170q-88 113 -88 156z" />
<glyph unicode="&#xcd;" horiz-adv-x="786" d="M80 0v106h225v1125h-225v104h627v-104h-228v-1125h228v-106h-627zM340 1509l102 258q29 78 56.5 111t66.5 33q31 0 52.5 -21.5t21.5 -54.5q0 -43 -88 -156l-133 -170h-78z" />
<glyph unicode="&#xce;" horiz-adv-x="786" d="M80 0v106h225v1125h-225v104h627v-104h-228v-1125h228v-106h-627zM131 1511l221 371h76l223 -371h-80l-180 209l-180 -209h-80z" />
<glyph unicode="&#xcf;" horiz-adv-x="786" d="M80 0v106h225v1125h-225v104h627v-104h-228v-1125h228v-106h-627zM109 1667q0 47 29.5 80t74.5 33t75.5 -33t30.5 -80t-30.5 -79t-75.5 -32t-74.5 32t-29.5 79zM463 1667q0 47 30.5 80t75.5 33t75 -33t30 -80t-30 -79t-75 -32t-75.5 32t-30.5 79z" />
<glyph unicode="&#xd0;" horiz-adv-x="1441" d="M66 0v106h227v541h-227v105h227v479h-227v104h552q358 0 545 -174t187 -473q0 -305 -181.5 -496.5t-537.5 -191.5h-565zM465 106h170q270 0 394 140.5t124 441.5q0 270 -129 406.5t-403 136.5h-156v-479h293v-105h-293v-541z" />
<glyph unicode="&#xd1;" horiz-adv-x="1570" d="M70 0v106h213v1125h-213v104h401l717 -1036h10v932h-207v104h531v-104h-203v-1264h-113l-794 1151h-11v-1012h205v-106h-536zM492 1522q18 137 60 193.5t122 56.5q57 0 143 -58.5t115 -58.5q61 0 84 129h76q-18 -137 -60.5 -194.5t-122.5 -57.5q-57 0 -143 59.5 t-115 59.5q-61 0 -84 -129h-75z" />
<glyph unicode="&#xd2;" d="M96 668q0 297 185.5 497.5t447.5 200.5q268 0 449.5 -195.5t181.5 -502.5q0 -299 -184.5 -500t-446.5 -201q-268 0 -450.5 197.5t-182.5 503.5zM293 667.5q0 -272.5 115.5 -432t320.5 -159.5q203 0 319.5 158.5t116.5 433.5q0 272 -116.5 430.5t-319.5 158.5 q-205 0 -320.5 -158.5t-115.5 -431zM496 1835q0 33 21.5 54.5t51.5 21.5q37 0 65 -33t58 -111l103 -258h-78l-133 170q-88 113 -88 156z" />
<glyph unicode="&#xd3;" d="M96 668q0 297 185.5 497.5t447.5 200.5q268 0 449.5 -195.5t181.5 -502.5q0 -299 -184.5 -500t-446.5 -201q-268 0 -450.5 197.5t-182.5 503.5zM293 667.5q0 -272.5 115.5 -432t320.5 -159.5q203 0 319.5 158.5t116.5 433.5q0 272 -116.5 430.5t-319.5 158.5 q-205 0 -320.5 -158.5t-115.5 -431zM676 1509l102 258q29 78 56.5 111t66.5 33q31 0 52.5 -21.5t21.5 -54.5q0 -43 -88 -156l-133 -170h-78z" />
<glyph unicode="&#xd4;" d="M96 668q0 297 185.5 497.5t447.5 200.5q268 0 449.5 -195.5t181.5 -502.5q0 -299 -184.5 -500t-446.5 -201q-268 0 -450.5 197.5t-182.5 503.5zM293 667.5q0 -272.5 115.5 -432t320.5 -159.5q203 0 319.5 158.5t116.5 433.5q0 272 -116.5 430.5t-319.5 158.5 q-205 0 -320.5 -158.5t-115.5 -431zM467 1511l221 371h76l223 -371h-80l-180 209l-180 -209h-80z" />
<glyph unicode="&#xd5;" d="M96 668q0 297 185.5 497.5t447.5 200.5q268 0 449.5 -195.5t181.5 -502.5q0 -299 -184.5 -500t-446.5 -201q-268 0 -450.5 197.5t-182.5 503.5zM293 667.5q0 -272.5 115.5 -432t320.5 -159.5q203 0 319.5 158.5t116.5 433.5q0 272 -116.5 430.5t-319.5 158.5 q-205 0 -320.5 -158.5t-115.5 -431zM428 1522q18 137 60 193.5t122 56.5q57 0 143.5 -58.5t114.5 -58.5q61 0 84 129h76q-18 -137 -60 -194.5t-122 -57.5q-57 0 -143.5 59.5t-114.5 59.5q-61 0 -84 -129h-76z" />
<glyph unicode="&#xd6;" d="M96 668q0 297 185.5 497.5t447.5 200.5q268 0 449.5 -195.5t181.5 -502.5q0 -299 -184.5 -500t-446.5 -201q-268 0 -450.5 197.5t-182.5 503.5zM293 667.5q0 -272.5 115.5 -432t320.5 -159.5q203 0 319.5 158.5t116.5 433.5q0 272 -116.5 430.5t-319.5 158.5 q-205 0 -320.5 -158.5t-115.5 -431zM444 1667q0 47 30 80t75 33t75.5 -33t30.5 -80t-30.5 -79t-75.5 -32t-75 32t-30 79zM799 1667q0 47 30.5 80t75.5 33t75 -33t30 -80t-30 -79t-75 -32t-75.5 32t-30.5 79z" />
<glyph unicode="&#xd7;" horiz-adv-x="1048" d="M158 872l73 74l293 -303l291 301l74 -76l-293 -299l295 -303l-74 -73l-293 303l-291 -301l-73 73l293 301z" />
<glyph unicode="&#xd8;" d="M96 668q0 297 185.5 497.5t447.5 200.5q207 0 371 -125l114 162h132l-172 -227q186 -201 186 -508q0 -299 -184.5 -500t-446.5 -201q-209 0 -373 125l-114 -162h-129l172 228q-188 199 -189 510zM293 668q0 -242 90 -394l631 865q-113 119 -285 118q-205 0 -320.5 -158.5 t-115.5 -430.5zM442 195q113 -119 287 -119q203 0 319.5 158.5t116.5 433.5q0 236 -90 389z" />
<glyph unicode="&#xd9;" horiz-adv-x="1503" d="M45 1231v104h576v-104h-207v-782q0 -188 96 -274.5t289 -86.5q164 0 260 96q94 94 94 314v733h-207v104h514v-104h-188v-809q0 -199 -136 -327t-388 -128q-248 0 -377 119t-129 317v828h-197zM547 1835q0 33 21.5 54.5t52.5 21.5q37 0 64.5 -33t57.5 -111l103 -258h-78 l-133 170q-88 113 -88 156z" />
<glyph unicode="&#xda;" horiz-adv-x="1503" d="M45 1231v104h576v-104h-207v-782q0 -188 96 -274.5t289 -86.5q164 0 260 96q94 94 94 314v733h-207v104h514v-104h-188v-809q0 -199 -136 -327t-388 -128q-248 0 -377 119t-129 317v828h-197zM727 1509l102 258q29 78 56.5 111t66.5 33q31 0 52.5 -21.5t21.5 -54.5 q0 -43 -88 -156l-133 -170h-78z" />
<glyph unicode="&#xdb;" horiz-adv-x="1503" d="M45 1231v104h576v-104h-207v-782q0 -188 96 -274.5t289 -86.5q164 0 260 96q94 94 94 314v733h-207v104h514v-104h-188v-809q0 -199 -136 -327t-388 -128q-248 0 -377 119t-129 317v828h-197zM518 1511l221 371h76l223 -371h-80l-180 209l-180 -209h-80z" />
<glyph unicode="&#xdc;" horiz-adv-x="1503" d="M45 1231v104h576v-104h-207v-782q0 -188 96 -274.5t289 -86.5q164 0 260 96q94 94 94 314v733h-207v104h514v-104h-188v-809q0 -199 -136 -327t-388 -128q-248 0 -377 119t-129 317v828h-197zM496 1667q0 47 29.5 80t74.5 33t76 -33t31 -80t-31 -79t-76 -32t-74.5 32 t-29.5 79zM850 1667q0 47 30.5 80t75.5 33t75 -33t30 -80t-30 -79t-75 -32t-75.5 32t-30.5 79z" />
<glyph unicode="&#xdd;" horiz-adv-x="1304" d="M12 1231v104h557v-104h-184l307 -559l330 559h-172v104h453v-104h-158l-408 -668v-457h207v-106h-586v106h205v455l-383 670h-168zM637 1509l102 258q29 78 56.5 111t66.5 33q31 0 52.5 -21.5t21.5 -54.5q0 -43 -88 -156l-133 -170h-78z" />
<glyph unicode="&#xde;" horiz-adv-x="1255" d="M66 0v106h227v1125h-227v104h620v-104h-221v-154h182q285 0 410 -102.5t125 -265.5q0 -168 -131 -279t-396 -111h-190v-213h221v-106h-620zM465 422h186q338 0 338 291q0 262 -336 262h-188v-553z" />
<glyph unicode="&#xdf;" horiz-adv-x="1120" d="M37 815v100h186v52q0 236 110.5 344t276.5 108q141 0 240.5 -84t99.5 -205q0 -78 -40 -136t-128 -124q-104 -76 -104 -133q0 -35 31.5 -62.5t150.5 -101.5q115 -70 169 -133t54 -164q0 -119 -84 -206.5t-225 -87.5q-111 0 -193.5 52t-82.5 142q0 49 29.5 81t74.5 32 t71.5 -29t26.5 -67q0 -53 -45 -89q45 -37 127 -36q80 0 126 46t46 109q0 104 -178 213q-131 78 -179 131.5t-48 134.5q0 49 28.5 92.5t94.5 108.5q72 70 97.5 118t25.5 112q0 86 -53.5 140t-139.5 54q-113 0 -166 -75.5t-53 -237.5v-1014h-311v106h151v709h-186z" />
<glyph unicode="&#xe0;" horiz-adv-x="989" d="M94 225q0 98 64 164q51 51 127.5 78t222.5 49q98 16 121.5 25.5t23.5 33.5v91q0 98 -47 141t-143 43q-111 0 -176 -53q55 -29 55 -95q0 -45 -28.5 -74.5t-78 -29.5t-79 30.5t-29.5 80.5q0 98 107.5 162.5t254.5 64.5q324 0 324 -277v-481q0 -45 14.5 -63.5t46.5 -18.5 q47 0 82 82l62 -35q-37 -80 -80 -116.5t-110.5 -36.5t-110.5 42t-45 128h-6q-47 -78 -130.5 -126t-177.5 -48q-125 0 -194.5 65.5t-69.5 173.5zM268 254q0 -160 160 -160q84 0 154.5 59.5t70.5 137.5v182q-23 -8 -100 -20q-160 -25 -222.5 -67t-62.5 -132zM268 1405 q0 33 21.5 54.5t52.5 21.5q37 0 64.5 -33t58.5 -111l102 -258h-78l-133 170q-88 113 -88 156z" />
<glyph unicode="&#xe1;" horiz-adv-x="989" d="M94 225q0 98 64 164q51 51 127.5 78t222.5 49q98 16 121.5 25.5t23.5 33.5v91q0 98 -47 141t-143 43q-111 0 -176 -53q55 -29 55 -95q0 -45 -28.5 -74.5t-78 -29.5t-79 30.5t-29.5 80.5q0 98 107.5 162.5t254.5 64.5q324 0 324 -277v-481q0 -45 14.5 -63.5t46.5 -18.5 q47 0 82 82l62 -35q-37 -80 -80 -116.5t-110.5 -36.5t-110.5 42t-45 128h-6q-47 -78 -130.5 -126t-177.5 -48q-125 0 -194.5 65.5t-69.5 173.5zM268 254q0 -160 160 -160q84 0 154.5 59.5t70.5 137.5v182q-23 -8 -100 -20q-160 -25 -222.5 -67t-62.5 -132zM449 1079l102 258 q29 78 56.5 111t66.5 33q31 0 52.5 -21.5t21.5 -54.5q0 -43 -89 -156l-133 -170h-77z" />
<glyph unicode="&#xe2;" horiz-adv-x="989" d="M94 225q0 98 64 164q51 51 127.5 78t222.5 49q98 16 121.5 25.5t23.5 33.5v91q0 98 -47 141t-143 43q-111 0 -176 -53q55 -29 55 -95q0 -45 -28.5 -74.5t-78 -29.5t-79 30.5t-29.5 80.5q0 98 107.5 162.5t254.5 64.5q324 0 324 -277v-481q0 -45 14.5 -63.5t46.5 -18.5 q47 0 82 82l62 -35q-37 -80 -80 -116.5t-110.5 -36.5t-110.5 42t-45 128h-6q-47 -78 -130.5 -126t-177.5 -48q-125 0 -194.5 65.5t-69.5 173.5zM240 1081l221 371h76l223 -371h-80l-180 209l-181 -209h-79zM268 254q0 -160 160 -160q84 0 154.5 59.5t70.5 137.5v182 q-23 -8 -100 -20q-160 -25 -222.5 -67t-62.5 -132z" />
<glyph unicode="&#xe3;" horiz-adv-x="989" d="M94 225q0 98 64 164q51 51 127.5 78t222.5 49q98 16 121.5 25.5t23.5 33.5v91q0 98 -47 141t-143 43q-111 0 -176 -53q55 -29 55 -95q0 -45 -28.5 -74.5t-78 -29.5t-79 30.5t-29.5 80.5q0 98 107.5 162.5t254.5 64.5q324 0 324 -277v-481q0 -45 14.5 -63.5t46.5 -18.5 q47 0 82 82l62 -35q-37 -80 -80 -116.5t-110.5 -36.5t-110.5 42t-45 128h-6q-47 -78 -130.5 -126t-177.5 -48q-125 0 -194.5 65.5t-69.5 173.5zM201 1092q18 137 60 193t122 56q57 0 143 -58t115 -58q61 0 84 129h76q-18 -137 -60.5 -194.5t-122.5 -57.5q-57 0 -143 59.5 t-115 59.5q-61 0 -84 -129h-75zM268 254q0 -160 160 -160q84 0 154.5 59.5t70.5 137.5v182q-23 -8 -100 -20q-160 -25 -222.5 -67t-62.5 -132z" />
<glyph unicode="&#xe4;" horiz-adv-x="989" d="M94 225q0 98 64 164q51 51 127.5 78t222.5 49q98 16 121.5 25.5t23.5 33.5v91q0 98 -47 141t-143 43q-111 0 -176 -53q55 -29 55 -95q0 -45 -28.5 -74.5t-78 -29.5t-79 30.5t-29.5 80.5q0 98 107.5 162.5t254.5 64.5q324 0 324 -277v-481q0 -45 14.5 -63.5t46.5 -18.5 q47 0 82 82l62 -35q-37 -80 -80 -116.5t-110.5 -36.5t-110.5 42t-45 128h-6q-47 -78 -130.5 -126t-177.5 -48q-125 0 -194.5 65.5t-69.5 173.5zM217 1237q0 47 29.5 80t75 33t76 -33t30.5 -80t-30.5 -79t-76 -32t-75 32t-29.5 79zM268 254q0 -160 160 -160q84 0 154.5 59.5 t70.5 137.5v182q-23 -8 -100 -20q-160 -25 -222.5 -67t-62.5 -132zM571 1237q0 47 31 80t76 33t74.5 -33t29.5 -80t-29.5 -79t-74.5 -32t-76 32t-31 79z" />
<glyph unicode="&#xe5;" horiz-adv-x="989" d="M94 225q0 98 64 164q51 51 127.5 78t222.5 49q98 16 121.5 25.5t23.5 33.5v91q0 98 -47 141t-143 43q-111 0 -176 -53q55 -29 55 -95q0 -45 -28.5 -74.5t-78 -29.5t-79 30.5t-29.5 80.5q0 98 107.5 162.5t254.5 64.5q324 0 324 -277v-481q0 -45 14.5 -63.5t46.5 -18.5 q47 0 82 82l62 -35q-37 -80 -80 -116.5t-110.5 -36.5t-110.5 42t-45 128h-6q-47 -78 -130.5 -126t-177.5 -48q-125 0 -194.5 65.5t-69.5 173.5zM268 254q0 -160 160 -160q84 0 154.5 59.5t70.5 137.5v182q-23 -8 -100 -20q-160 -25 -222.5 -67t-62.5 -132zM285 1274 q0 86 57 146.5t157.5 60.5t158 -60.5t57.5 -146.5t-57.5 -146.5t-158 -60.5t-157.5 60.5t-57 146.5zM381 1273.5q0 -61.5 31.5 -100t87 -38.5t87 38.5t31.5 100t-31.5 101.5t-87 40t-87 -40t-31.5 -101.5z" />
<glyph unicode="&#xe6;" horiz-adv-x="1523" d="M94 225q0 98 64 164q51 51 127.5 78t222.5 49q98 16 121.5 25.5t23.5 33.5v91q0 98 -47 141t-143 43q-111 0 -176 -53q55 -29 55 -95q0 -45 -28.5 -74.5t-78 -29.5t-79 30.5t-29.5 80.5q0 98 107.5 162.5t254.5 64.5q219 0 283 -135q115 137 297 137q188 0 286.5 -143 t94.5 -342h-637q2 -176 78 -269.5t207 -93.5q188 0 260 180h86q-84 -289 -381 -288q-127 0 -219 59t-139 158q-57 -104 -152.5 -158.5t-194.5 -54.5q-125 0 -194.5 65.5t-69.5 173.5zM268 254q0 -160 160 -160q84 0 154.5 59.5t70.5 137.5v182q-23 -8 -100 -20 q-160 -25 -222.5 -67t-62.5 -132zM815 541h469q-22 309 -223 309q-102 0 -167 -79t-79 -230z" />
<glyph unicode="&#xe7;" horiz-adv-x="966" d="M80 442q0 219 129 357.5t336 138.5q143 0 245.5 -83t102.5 -177q0 -61 -33 -101t-86 -40q-51 0 -80.5 31.5t-29.5 78.5q0 37 21.5 67.5t55.5 43.5q-63 94 -202 94q-127 0 -207 -105.5t-80 -283.5q0 -176 79 -275.5t216 -99.5q193 0 270 211h88q-66 -254 -289 -305 l-131 -131l2 -6q98 -2 156.5 -47.5t58.5 -114.5q0 -82 -60.5 -131t-156.5 -49q-115 0 -206 61l38 66q78 -47 152 -48q53 0 85 24t32 65q0 45 -41 69.5t-103 24.5q-41 0 -77 -10l-29 38l168 177q-188 2 -306 131t-118 329z" />
<glyph unicode="&#xe8;" horiz-adv-x="974" d="M80 450.5q0 208.5 126 348t312 139.5q188 0 286.5 -143t94.5 -342h-647q2 -176 82 -269.5t213 -93.5q190 0 262 180h86q-41 -141 -140.5 -214.5t-242.5 -73.5q-199 0 -315.5 130t-116.5 338.5zM254 541h481q-22 309 -227 309q-104 0 -172 -80t-82 -229zM285 1405 q0 33 21.5 54.5t51.5 21.5q37 0 65 -33t58 -111l103 -258h-78l-133 170q-88 113 -88 156z" />
<glyph unicode="&#xe9;" horiz-adv-x="974" d="M80 450.5q0 208.5 126 348t312 139.5q188 0 286.5 -143t94.5 -342h-647q2 -176 82 -269.5t213 -93.5q190 0 262 180h86q-41 -141 -140.5 -214.5t-242.5 -73.5q-199 0 -315.5 130t-116.5 338.5zM254 541h481q-22 309 -227 309q-104 0 -172 -80t-82 -229zM465 1079l102 258 q29 78 56.5 111t66.5 33q31 0 52.5 -21.5t21.5 -54.5q0 -43 -88 -156l-133 -170h-78z" />
<glyph unicode="&#xea;" horiz-adv-x="974" d="M80 450.5q0 208.5 126 348t312 139.5q188 0 286.5 -143t94.5 -342h-647q2 -176 82 -269.5t213 -93.5q190 0 262 180h86q-41 -141 -140.5 -214.5t-242.5 -73.5q-199 0 -315.5 130t-116.5 338.5zM254 541h481q-22 309 -227 309q-104 0 -172 -80t-82 -229zM256 1081l221 371 h76l223 -371h-80l-180 209l-180 -209h-80z" />
<glyph unicode="&#xeb;" horiz-adv-x="974" d="M80 450.5q0 208.5 126 348t312 139.5q188 0 286.5 -143t94.5 -342h-647q2 -176 82 -269.5t213 -93.5q190 0 262 180h86q-41 -141 -140.5 -214.5t-242.5 -73.5q-199 0 -315.5 130t-116.5 338.5zM233 1237q0 47 30 80t75 33t75.5 -33t30.5 -80t-30.5 -79t-75.5 -32t-75 32 t-30 79zM254 541h481q-22 309 -227 309q-104 0 -172 -80t-82 -229zM588 1237q0 47 30.5 80t75.5 33t75 -33t30 -80t-30 -79t-75 -32t-75.5 32t-30.5 79z" />
<glyph unicode="&#xec;" horiz-adv-x="614" d="M70 1405q0 33 21.5 54.5t51.5 21.5q37 0 65 -33t58 -111l103 -258h-78l-133 170q-88 113 -88 156zM74 0v106h174v709h-174v107h332v-816h174v-106h-506z" />
<glyph unicode="&#xed;" horiz-adv-x="614" d="M74 0v106h174v709h-174v107h332v-816h174v-106h-506zM248 1079l102 258q29 78 56.5 111t66.5 33q31 0 52.5 -21.5t21.5 -54.5q0 -43 -88 -156l-133 -170h-78z" />
<glyph unicode="&#xee;" horiz-adv-x="614" d="M41 1081l221 371h76l223 -371h-80l-180 209l-180 -209h-80zM74 0v106h174v709h-174v107h332v-816h174v-106h-506z" />
<glyph unicode="&#xef;" horiz-adv-x="614" d="M18 1237q0 47 30 80t75 33t75.5 -33t30.5 -80t-30.5 -79t-75.5 -32t-75 32t-30 79zM74 0v106h174v709h-174v107h332v-816h174v-106h-506zM373 1237q0 47 30.5 80t75.5 33t75 -33t30 -80t-30 -79t-75 -32t-75.5 32t-30.5 79z" />
<glyph unicode="&#xf0;" horiz-adv-x="1060" d="M80 444q0 211 123 352.5t307 141.5q94 0 164.5 -45t107.5 -113q-29 162 -176 359l-227 -101l-37 82l207 90q-59 72 -141 156l133 18q61 -57 123 -122l215 94l34 -82l-188 -84q244 -293 244 -604q0 -279 -125 -441.5t-338 -162.5q-186 0 -306 129t-120 333zM252 459 q0 -190 77.5 -288.5t200.5 -98.5q117 0 191 100t74 289q0 193 -78 290t-201 97q-119 0 -191.5 -98.5t-72.5 -290.5z" />
<glyph unicode="&#xf1;" horiz-adv-x="1163" d="M70 0v106h153v709h-153v107h309v-238q145 252 348 252q119 0 184.5 -76t65.5 -215v-539h153v-106h-452v106h141v467q0 137 -53 191q-41 43 -117 43q-100 0 -183 -93t-83 -206v-402h139v-106h-452zM305 1092q18 137 60.5 193t121.5 56q57 0 143.5 -58t114.5 -58 q61 0 84 129h76q-18 -137 -60 -194.5t-122 -57.5q-57 0 -143 59.5t-115 59.5q-61 0 -84 -129h-76z" />
<glyph unicode="&#xf2;" horiz-adv-x="1048" d="M80 453q0 213 127 349t317 136q197 0 321 -130t124 -341q0 -213 -127.5 -349t-317.5 -136q-197 0 -320.5 130t-123.5 341zM252 459q0 -190 78.5 -288.5t201.5 -98.5q119 0 191 98t72 290.5t-78 290t-201 97.5q-119 0 -191.5 -98.5t-72.5 -290.5zM293 1405q0 33 21.5 54.5 t52.5 21.5q37 0 64.5 -33t57.5 -111l103 -258h-78l-133 170q-88 113 -88 156z" />
<glyph unicode="&#xf3;" horiz-adv-x="1048" d="M80 453q0 213 127 349t317 136q197 0 321 -130t124 -341q0 -213 -127.5 -349t-317.5 -136q-197 0 -320.5 130t-123.5 341zM252 459q0 -190 78.5 -288.5t201.5 -98.5q119 0 191 98t72 290.5t-78 290t-201 97.5q-119 0 -191.5 -98.5t-72.5 -290.5zM471 1079l102 258 q29 78 56.5 111t66.5 33q31 0 52.5 -21.5t21.5 -54.5q0 -43 -88 -156l-133 -170h-78z" />
<glyph unicode="&#xf4;" horiz-adv-x="1048" d="M80 453q0 213 127 349t317 136q197 0 321 -130t124 -341q0 -213 -127.5 -349t-317.5 -136q-197 0 -320.5 130t-123.5 341zM252 459q0 -190 78.5 -288.5t201.5 -98.5q119 0 191 98t72 290.5t-78 290t-201 97.5q-119 0 -191.5 -98.5t-72.5 -290.5zM262 1081l221 371h76 l223 -371h-80l-180 209l-180 -209h-80z" />
<glyph unicode="&#xf5;" horiz-adv-x="1048" d="M80 453q0 213 127 349t317 136q197 0 321 -130t124 -341q0 -213 -127.5 -349t-317.5 -136q-197 0 -320.5 130t-123.5 341zM223 1092q18 137 60.5 193t122.5 56q57 0 143 -58t115 -58q61 0 84 129h75q-18 -137 -60 -194.5t-122 -57.5q-57 0 -143 59.5t-115 59.5 q-61 0 -84 -129h-76zM252 459q0 -190 78.5 -288.5t201.5 -98.5q119 0 191 98t72 290.5t-78 290t-201 97.5q-119 0 -191.5 -98.5t-72.5 -290.5z" />
<glyph unicode="&#xf6;" horiz-adv-x="1048" d="M80 453q0 213 127 349t317 136q197 0 321 -130t124 -341q0 -213 -127.5 -349t-317.5 -136q-197 0 -320.5 130t-123.5 341zM240 1237q0 47 29.5 80t74.5 33t76 -33t31 -80t-31 -79t-76 -32t-74.5 32t-29.5 79zM252 459q0 -190 78.5 -288.5t201.5 -98.5q119 0 191 98 t72 290.5t-78 290t-201 97.5q-119 0 -191.5 -98.5t-72.5 -290.5zM594 1237q0 47 30.5 80t75.5 33t75 -33t30 -80t-30 -79t-75 -32t-75.5 32t-30.5 79z" />
<glyph unicode="&#xf7;" horiz-adv-x="1048" d="M98 518v100h854v-100h-854zM414 256q0 47 32.5 80t77.5 33t78 -33t33 -80t-33 -79t-78 -32t-77.5 32t-32.5 79zM414 881q0 45 32.5 77.5t77.5 32.5t78 -32.5t33 -77.5t-33 -78t-78 -33t-77.5 33t-32.5 78z" />
<glyph unicode="&#xf8;" horiz-adv-x="1048" d="M76 -55l127 166q-123 129 -123 342t127 349t317 136q147 0 258 -76l84 113h107l-129 -166q125 -135 125 -342q0 -213 -127 -349t-318 -136q-147 0 -258 75l-84 -112h-106zM252 459q0 -135 43 -232l410 537q-72 84 -189 84q-119 0 -191.5 -98t-72.5 -291zM344 154 q73 -82 188 -82q119 0 191 98t72 291q0 137 -45 231z" />
<glyph unicode="&#xf9;" horiz-adv-x="1128" d="M37 815v107h309v-574q0 -141 53 -192q35 -41 113 -41q100 0 182 93t82 204v403h-158v107h318v-816h151v-106h-307v236q-147 -252 -346 -252q-117 0 -181.5 75.5t-64.5 216.5v539h-151zM324 1405q0 33 21.5 54.5t51.5 21.5q37 0 64.5 -33t58.5 -111l103 -258h-78l-133 170 q-88 113 -88 156z" />
<glyph unicode="&#xfa;" horiz-adv-x="1128" d="M37 815v107h309v-574q0 -141 53 -192q35 -41 113 -41q100 0 182 93t82 204v403h-158v107h318v-816h151v-106h-307v236q-147 -252 -346 -252q-117 0 -181.5 75.5t-64.5 216.5v539h-151zM504 1079l102 258q29 78 56.5 111t66.5 33q31 0 52.5 -21.5t21.5 -54.5 q0 -43 -88 -156l-133 -170h-78z" />
<glyph unicode="&#xfb;" horiz-adv-x="1128" d="M37 815v107h309v-574q0 -141 53 -192q35 -41 113 -41q100 0 182 93t82 204v403h-158v107h318v-816h151v-106h-307v236q-147 -252 -346 -252q-117 0 -181.5 75.5t-64.5 216.5v539h-151zM295 1081l221 371h76l223 -371h-80l-180 209l-180 -209h-80z" />
<glyph unicode="&#xfc;" horiz-adv-x="1128" d="M37 815v107h309v-574q0 -141 53 -192q35 -41 113 -41q100 0 182 93t82 204v403h-158v107h318v-816h151v-106h-307v236q-147 -252 -346 -252q-117 0 -181.5 75.5t-64.5 216.5v539h-151zM272 1237q0 47 30 80t75 33t75.5 -33t30.5 -80t-30.5 -79t-75.5 -32t-75 32t-30 79z M627 1237q0 47 30.5 80t75.5 33t75 -33t30 -80t-30 -79t-75 -32t-75.5 32t-30.5 79z" />
<glyph unicode="&#xfd;" horiz-adv-x="1001" d="M0 815v107h459v-107h-160l238 -633l245 633h-141v107h369v-107h-113l-317 -778q-84 -207 -173.5 -289t-199.5 -82q-82 0 -130 40t-48 104q0 51 32.5 86.5t81.5 35.5q47 0 76 -29.5t29 -74.5q0 -41 -19 -70q63 4 115.5 55.5t108.5 188.5l-326 813h-127zM483 1079l103 258 q29 78 56.5 111t66.5 33q31 0 52 -21.5t21 -54.5q0 -43 -88 -156l-133 -170h-78z" />
<glyph unicode="&#xfe;" horiz-adv-x="1075" d="M12 -201h154v1497h-154v111h312v-684q53 102 136 158.5t177 56.5q133 0 227 -90q123 -123 123 -377q0 -233 -135 -373q-98 -98 -236 -98q-199 0 -292 186v-387h198v-106h-510v106zM319 446q0 -154 77 -251t186 -97q104 0 168.5 97.5t64.5 275.5t-63.5 269t-163.5 91 q-113 0 -191 -110.5t-78 -274.5z" />
<glyph unicode="&#xff;" horiz-adv-x="1001" d="M0 815v107h459v-107h-160l238 -633l245 633h-141v107h369v-107h-113l-317 -778q-84 -207 -173.5 -289t-199.5 -82q-82 0 -130 40t-48 104q0 51 32.5 86.5t81.5 35.5q47 0 76 -29.5t29 -74.5q0 -41 -19 -70q63 4 115.5 55.5t108.5 188.5l-326 813h-127zM252 1237 q0 47 29.5 80t74.5 33t76 -33t31 -80t-31 -79t-76 -32t-74.5 32t-29.5 79zM606 1237q0 47 31 80t76 33t74.5 -33t29.5 -80t-29.5 -79t-74.5 -32t-76 32t-31 79z" />
<glyph unicode="&#x152;" horiz-adv-x="2029" d="M94 647q0 305 181.5 496.5t537.5 191.5h1079v-417h-80q-43 205 -75.5 259t-126.5 54h-459v-498h201q92 0 118.5 33t49.5 172h84v-510h-84q-20 143 -48 178t-120 35h-201v-535h455q109 0 144.5 59.5t80.5 293.5h80v-459h-1086q-358 0 -544.5 174t-186.5 473zM289 647 q0 -268 129 -404.5t403 -136.5h156v1125h-170q-268 0 -393 -141.5t-125 -442.5z" />
<glyph unicode="&#x153;" horiz-adv-x="1685" d="M80 453q0 213 127 349t317 136q244 0 361 -201q57 94 146 147.5t198 53.5q190 0 288.5 -143t94.5 -342h-647q2 -176 80.5 -269.5t211.5 -93.5q190 0 263 180h86q-41 -141 -140.5 -214.5t-242.5 -73.5q-238 0 -349 200q-57 -94 -148 -147t-202 -53q-197 0 -320.5 130 t-123.5 341zM252 459q0 -190 78.5 -288.5t201.5 -98.5q119 0 191 98t72 290.5t-78 290t-201 97.5q-119 0 -191.5 -98.5t-72.5 -290.5zM967 541h479q-22 309 -225 309q-104 0 -172 -80t-82 -229z" />
<glyph unicode="&#x178;" horiz-adv-x="1304" d="M12 1231v104h557v-104h-184l307 -559l330 559h-172v104h453v-104h-158l-408 -668v-457h207v-106h-586v106h205v455l-383 670h-168zM406 1667q0 47 29.5 80t74.5 33t75.5 -33t30.5 -80t-30.5 -79t-75.5 -32t-74.5 32t-29.5 79zM760 1667q0 47 30.5 80t75.5 33t75 -33 t30 -80t-30 -79t-75 -32t-75.5 32t-30.5 79z" />
<glyph unicode="&#x2c6;" horiz-adv-x="612" d="M47 1081l221 371h76l223 -371h-80l-180 209l-180 -209h-80z" />
<glyph unicode="&#x2dc;" horiz-adv-x="677" d="M39 1092q18 137 60 193t122 56q57 0 143.5 -58t114.5 -58q61 0 84 129h76q-18 -137 -60 -194.5t-122 -57.5q-57 0 -143.5 59.5t-114.5 59.5q-61 0 -84 -129h-76z" />
<glyph unicode="&#x2000;" horiz-adv-x="955" />
<glyph unicode="&#x2001;" horiz-adv-x="1911" />
<glyph unicode="&#x2002;" horiz-adv-x="955" />
<glyph unicode="&#x2003;" horiz-adv-x="1911" />
<glyph unicode="&#x2004;" horiz-adv-x="637" />
<glyph unicode="&#x2005;" horiz-adv-x="477" />
<glyph unicode="&#x2006;" horiz-adv-x="318" />
<glyph unicode="&#x2007;" horiz-adv-x="318" />
<glyph unicode="&#x2008;" horiz-adv-x="238" />
<glyph unicode="&#x2009;" horiz-adv-x="382" />
<glyph unicode="&#x200a;" horiz-adv-x="106" />
<glyph unicode="&#x2010;" horiz-adv-x="749" d="M113 430v133h524v-133h-524z" />
<glyph unicode="&#x2011;" horiz-adv-x="749" d="M113 430v133h524v-133h-524z" />
<glyph unicode="&#x2012;" horiz-adv-x="749" d="M113 430v133h524v-133h-524z" />
<glyph unicode="&#x2013;" horiz-adv-x="1105" d="M113 432v117h880v-117h-880z" />
<glyph unicode="&#x2014;" horiz-adv-x="1617" d="M113 432v117h1392v-117h-1392z" />
<glyph unicode="&#x2018;" horiz-adv-x="438" d="M98 1036q0 109 64.5 191t212.5 147l33 -61q-195 -92 -218 -219l9 -7q20 14 47 15q39 0 65.5 -29t26.5 -72q0 -47 -32 -80.5t-79 -33.5q-59 0 -94 42t-35 107z" />
<glyph unicode="&#x2019;" horiz-adv-x="438" d="M35 940q195 92 217 221l-8 4q-23 -12 -47 -12q-39 0 -66 28.5t-27 71.5q0 45 32 79t79 34q59 0 94 -41t35 -108q1 -213 -278 -338z" />
<glyph unicode="&#x201a;" horiz-adv-x="438" d="M35 -225q195 92 217 221l-8 4q-23 -12 -47 -12q-39 0 -66 28.5t-27 71.5q0 45 32 79t79 34q59 0 94 -41t35 -109q1 -213 -278 -338z" />
<glyph unicode="&#x201c;" horiz-adv-x="796" d="M98 1036q0 109 64.5 191t212.5 147l33 -61q-197 -92 -220 -219l9 -7q23 14 47 15q39 0 65.5 -29t26.5 -72q0 -47 -31 -80.5t-78 -33.5q-59 0 -94 42t-35 107zM459 1036q0 215 278 338l31 -61q-195 -92 -217 -219l8 -7q20 14 47 15q39 0 65.5 -29t26.5 -72 q0 -47 -31.5 -80.5t-78.5 -33.5q-59 0 -94 42t-35 107z" />
<glyph unicode="&#x201d;" horiz-adv-x="796" d="M35 940q195 92 217 221l-8 4q-23 -12 -47 -12q-39 0 -66 28.5t-27 71.5q0 45 32 79t79 34q59 0 94 -41t35 -108q1 -213 -278 -338zM395 940q197 92 219 221l-8 4q-25 -12 -47 -12q-39 0 -66.5 28.5t-27.5 71.5q0 45 31.5 79t78.5 34q59 0 94.5 -41t35.5 -108 q0 -109 -65 -190.5t-212 -147.5z" />
<glyph unicode="&#x201e;" horiz-adv-x="796" d="M35 -225q195 92 217 221l-8 4q-23 -12 -47 -12q-39 0 -66 28.5t-27 71.5q0 45 32 79t79 34q59 0 94 -41t35 -109q1 -213 -278 -338zM395 -225q197 92 219 221l-8 4q-25 -12 -47 -12q-39 0 -66.5 28.5t-27.5 71.5q0 45 31.5 79t78.5 34q59 0 94.5 -41t35.5 -109 q0 -109 -65 -190.5t-212 -147.5z" />
<glyph unicode="&#x2022;" horiz-adv-x="942" d="M223 645.5q0 104.5 73 178t175 73.5t175 -73.5t73 -178t-73 -177.5t-175 -73t-175 73t-73 177.5z" />
<glyph unicode="&#x2026;" horiz-adv-x="1296" d="M102 84q0 49 34 83t83 34t83 -34t34 -83q0 -47 -34 -81t-83 -34t-83 34t-34 81zM530 84q0 49 35 83t84 34q47 0 81 -34t34 -83q0 -47 -34 -81t-81 -34q-49 0 -84 34t-35 81zM961 84q0 49 33.5 83t82.5 34t83 -34t34 -83q0 -47 -34 -81t-83 -34t-82.5 34t-33.5 81z" />
<glyph unicode="&#x202f;" horiz-adv-x="382" />
<glyph unicode="&#x2039;" horiz-adv-x="610" d="M88 458.5q0 26.5 55 82.5l308 311l59 -41l-256 -350l256 -355l-59 -40l-308 311q-55 55 -55 81.5z" />
<glyph unicode="&#x203a;" horiz-adv-x="610" d="M100 106l256 351l-256 354l60 41l307 -311q55 -55 55 -82t-55 -82l-307 -311z" />
<glyph unicode="&#x205f;" horiz-adv-x="477" />
<glyph unicode="&#x20ac;" horiz-adv-x="1316" d="M78 451v96h172q-2 25 -2 78q0 33 4 94h-174v96h192q51 221 205 361.5t354 140.5q168 0 284 -84t116 -195q0 -55 -35 -98t-92.5 -43t-90 33t-32.5 88q0 72 61 112q-57 84 -209 84q-133 0 -242.5 -94t-144.5 -305h406v-96h-418q-2 -29 -2 -90q0 -55 2 -82h418v-96h-404 q33 -168 130.5 -261.5t238.5 -93.5q135 0 222 86t106 232h96q-10 -182 -133 -314.5t-324 -132.5q-209 0 -343 134.5t-175 349.5h-186z" />
<glyph unicode="&#x2122;" horiz-adv-x="1677" d="M92 1112v223h567v-223h-47q-25 109 -44 138.5t-70 29.5h-68v-487h115v-60h-338v60h117v487h-68q-53 0 -71.5 -28.5t-45.5 -139.5h-47zM748 733v60h90v485h-90v57h260l159 -463h7l167 463h252v-57h-92v-485h92v-60h-270v60h74v460h-19l-192 -520h-72l-186 520h-21v-460h76 v-60h-235z" />
<glyph unicode="&#x25fc;" horiz-adv-x="921" d="M0 0v922h922v-922h-922z" />
</font>
</defs>
</svg>
